<svg width="24" height="24" viewBox="0 0 24 24" fill="none" xmlns="http://www.w3.org/2000/svg">
<g id="ic-map">
<g id="Group">
<path id="Vector" d="M12.7371 9.47818C12.7371 9.73825 12.6338 9.98768 12.4499 10.1716C12.266 10.3555 12.0166 10.4588 11.7565 10.4588C11.4964 10.4588 11.247 10.3555 11.0631 10.1716C10.8792 9.98768 10.7759 9.73826 10.7759 9.47818C10.7759 9.2181 10.8792 8.96868 11.0631 8.78478C11.247 8.60087 11.4964 8.49756 11.7565 8.49756C12.0166 8.49756 12.266 8.60087 12.4499 8.78478C12.6338 8.96868 12.7371 9.2181 12.7371 9.47818Z" fill="#C0C0C0" stroke="#C0C0C0" stroke-width="2" stroke-linecap="round" stroke-linejoin="round"/>
<path id="Vector_2" d="M17.9999 9.9875C17.9999 13.0965 16.3673 15.5964 14.6345 17.3706C13.7744 18.2512 12.9114 18.9297 12.2635 19.3874C12.0481 19.5395 11.8575 19.6666 11.6999 19.7679C11.5423 19.6666 11.3517 19.5395 11.1363 19.3874C10.4884 18.9297 9.6254 18.2512 8.7653 17.3706C7.03247 15.5964 5.3999 13.0965 5.3999 9.9875C5.3999 8.31664 6.06365 6.71421 7.24513 5.53273C8.42661 4.35125 10.029 3.6875 11.6999 3.6875C13.3708 3.6875 14.9732 4.35125 16.1547 5.53273C17.3362 6.71421 17.9999 8.31664 17.9999 9.9875Z" stroke="#C0C0C0" stroke-width="2" stroke-linecap="round" stroke-linejoin="round"/>
</g>
</g>
</svg>
