<svg width="338" height="201" viewBox="0 0 338 201" fill="none" xmlns="http://www.w3.org/2000/svg">
<g opacity="0.2">
<path d="M53.2044 43.8734C39.6559 50.0659 38.2729 70.0973 39.2749 79.3389C39.4744 81.949 42.5962 92.5205 54.9239 90.6646C67.2517 88.8087 64.8389 80.7797 69.4066 77.9763C73.9743 75.1728 80.0895 84.0288 91.251 75.077C100.18 67.9156 93.0801 57.8428 88.414 53.7016C82.3226 47.8453 66.7529 37.6808 53.2044 43.8734Z" fill="#89C8FF" stroke="#89C8FF" stroke-width="2" stroke-linecap="round"/>
<path d="M43.0159 27.291C47.0982 33.9168 45.832 41.8157 40.4538 45.0123C35.0756 48.2089 27.3637 45.6461 23.2814 39.0204C19.1991 32.3947 20.4653 24.4958 25.8435 21.2992C31.2217 18.1026 38.9337 20.6653 43.0159 27.291Z" fill="#89C8FF" stroke="#89C8FF"/>
<path d="M72.5101 18.0769C74.9814 25.4303 71.9592 32.8676 65.994 34.8196C60.0288 36.7716 53.1017 32.5899 50.6303 25.2365C48.159 17.8831 51.1812 10.4457 57.1464 8.49377C63.1116 6.5418 70.0387 10.7235 72.5101 18.0769Z" fill="#89C8FF" stroke="#89C8FF"/>
<path d="M100.14 35.9565C98.4336 42.6661 92.4283 46.8608 86.8376 45.5266C81.2468 44.1924 77.94 37.7755 79.6461 31.0658C81.3523 24.3562 87.3576 20.1615 92.9483 21.4957C98.539 22.8299 101.846 29.2468 100.14 35.9565Z" fill="#89C8FF" stroke="#89C8FF"/>
<path d="M30.8278 53.8994C35.674 58.8964 36.0101 66.0908 31.8255 69.9848C27.6408 73.8789 20.3231 73.1811 15.477 68.1841C10.6309 63.1871 10.2947 55.9927 14.4794 52.0986C18.664 48.2046 25.9817 48.9024 30.8278 53.8994Z" fill="#89C8FF" stroke="#89C8FF"/>
<path d="M281.667 100.471C276.98 97.2886 270.06 100.845 267.185 103.021C266.357 103.609 263.452 106.743 266.461 110.394C269.47 114.045 271.669 111.651 273.486 112.581C275.304 113.511 273.55 117.278 278.689 119.129C282.8 120.61 284.767 116.278 285.237 113.926C285.999 110.767 286.353 103.653 281.667 100.471Z" fill="#89C8FF" stroke="#89C8FF" stroke-width="2" stroke-linecap="round"/>
<path d="M284.917 93.6766C283.559 96.2407 280.856 97.2686 278.952 96.2602C277.049 95.2518 276.38 92.4378 277.739 89.8738C279.097 87.3098 281.8 86.2818 283.704 87.2902C285.607 88.2986 286.276 91.1126 284.917 93.6766Z" fill="#89C8FF" stroke="#89C8FF"/>
<path d="M293.746 101.407C291.852 103.605 288.988 104.007 287.356 102.601C285.724 101.195 285.697 98.3027 287.591 96.1044C289.485 93.9061 292.349 93.5042 293.981 94.9102C295.613 96.3162 295.64 99.2083 293.746 101.407Z" fill="#89C8FF" stroke="#89C8FF"/>
<path d="M293.315 113.906C290.865 114.658 288.516 113.566 287.939 111.686C287.362 109.807 288.694 107.584 291.143 106.832C293.593 106.08 295.942 107.172 296.519 109.052C297.096 110.932 295.765 113.154 293.315 113.906Z" fill="#89C8FF" stroke="#89C8FF"/>
<path d="M273.691 95.0854C273.004 97.554 270.817 98.9436 268.923 98.4161C267.029 97.8885 265.876 95.5688 266.563 93.1002C267.251 90.6316 269.437 89.2421 271.331 89.7696C273.225 90.2971 274.379 92.6169 273.691 95.0854Z" fill="#89C8FF" stroke="#89C8FF"/>
</g>
<path d="M6.05078 181V132.922H37.7266V141.156H16.0117V152.844H35.668V161.078H16.0117V181H6.05078ZM39.8702 170.906C39.9034 162.871 46.3448 160.248 53.2842 159.816C55.8741 159.65 60.7217 159.418 62.2491 159.352V156.43C62.2159 153.408 60.1573 151.682 56.4717 151.648C53.1182 151.682 51.0264 153.176 50.4952 155.633H41.1319C41.7295 149.391 47.1748 144.477 56.7373 144.477C64.6065 144.477 72.044 147.996 72.0108 156.695V181H62.7139V176.02H62.4483C60.6885 179.34 57.2354 181.697 51.8897 181.664C44.9834 181.697 39.9034 178.045 39.8702 170.906ZM49.2998 170.641C49.2998 173.396 51.5245 174.857 54.6787 174.891C59.1612 174.857 62.2823 171.936 62.2491 168.117V165.494C60.7549 165.561 56.5381 165.793 54.878 165.926C51.458 166.225 49.2998 167.852 49.2998 170.641ZM77.4747 181V144.941H86.838V151.25H87.2364C88.7637 147.033 92.4161 144.477 97.2637 144.477C102.211 144.477 105.897 147.1 107.092 151.25H107.424C108.918 147.166 113.035 144.477 118.315 144.477C124.988 144.477 129.67 148.893 129.67 156.762V181H119.842V158.688C119.875 154.57 117.418 152.578 114.197 152.578C110.512 152.578 108.32 155.135 108.354 158.953V181H98.7911V158.422C98.8243 154.869 96.5665 152.578 93.213 152.578C89.8595 152.578 87.2696 155.268 87.3028 159.352V181H77.4747ZM135.2 181V144.941H145.028V181H135.2ZM134.735 135.246C134.735 132.457 137.159 130.232 140.114 130.199C143.036 130.232 145.46 132.457 145.427 135.246C145.46 137.969 143.036 140.227 140.114 140.227C137.159 140.227 134.735 137.969 134.735 135.246ZM160.453 132.922V181H150.625V132.922H160.453ZM171.827 194.547C169.902 194.514 168.109 194.48 166.847 194.348V186.711C168.109 186.811 169.603 186.844 170.831 186.844C172.79 186.844 174.351 186.645 175.546 183.523L176.144 181.996L163.195 144.941H173.488L181.058 171.504H181.456L189.093 144.941H199.519L185.441 184.984C183.382 190.795 179.431 194.514 171.827 194.547ZM233.025 181H216.091V132.922H233.224C247.7 132.922 256.566 141.92 256.533 156.895C256.566 171.936 247.7 181 233.025 181ZM226.052 172.434H232.626C241.79 172.434 246.572 167.686 246.572 156.895C246.572 146.203 241.79 141.488 232.693 141.488H226.052V172.434ZM277.735 181.73C266.844 181.697 260.037 174.227 260.071 163.07C260.037 151.947 266.844 144.477 277.735 144.477C288.659 144.477 295.432 151.947 295.465 163.07C295.432 174.227 288.659 181.697 277.735 181.73ZM270.032 163.07C270.032 169.379 272.655 174.061 277.801 174.094C282.815 174.061 285.471 169.379 285.438 163.07C285.471 156.729 282.815 151.98 277.801 151.98C272.655 151.98 270.032 156.729 270.032 163.07ZM315.804 195.277C305.843 195.277 299.701 190.795 299.136 183.988H308.831C309.363 186.877 312.085 188.172 316.003 188.172C320.552 188.172 323.607 186.213 323.64 181.199V174.625H323.175C321.88 177.547 318.693 180.502 312.882 180.469C304.747 180.502 298.206 174.758 298.206 162.738C298.206 150.553 304.913 144.477 312.882 144.477C318.925 144.477 321.847 148.062 323.175 150.984H323.574V144.941H333.335V181.398C333.302 190.596 326.064 195.277 315.804 195.277ZM308.3 162.871C308.267 169.113 310.956 173.064 315.937 173.098C320.851 173.064 323.64 169.279 323.64 162.871C323.64 156.463 320.884 152.312 315.937 152.312C310.923 152.312 308.267 156.662 308.3 162.871Z" fill="white"/>
<g clip-path="url(#clip0_316_2074)">
<path d="M127.594 121.22C132.013 121.22 135.595 118.903 135.595 116.044C135.595 113.186 132.013 110.869 127.594 110.869C123.176 110.869 119.594 113.186 119.594 116.044C119.594 118.903 123.176 121.22 127.594 121.22Z" fill="#A96F60"/>
<path d="M129.19 121.393C133.608 121.393 137.19 118.228 137.19 114.324C137.19 110.42 133.608 107.255 129.19 107.255C124.771 107.255 121.189 110.42 121.189 114.324C121.189 118.228 124.771 121.393 129.19 121.393Z" fill="#A96F60"/>
<path d="M137.204 116.344C142.594 116.344 146.964 112.896 146.964 108.644C146.964 104.391 142.594 100.944 137.204 100.944C131.813 100.944 127.443 104.391 127.443 108.644C127.443 112.896 131.813 116.344 137.204 116.344Z" fill="#A96F60"/>
<path d="M117.622 140.242C122.72 140.242 126.853 135.758 126.853 130.226C126.853 124.695 122.72 120.211 117.622 120.211C112.524 120.211 108.391 124.695 108.391 130.226C108.391 135.758 112.524 140.242 117.622 140.242Z" fill="#A96F60"/>
<path d="M113.427 150.257C118.525 150.257 122.658 145.773 122.658 140.242C122.658 134.711 118.525 130.227 113.427 130.227C108.328 130.227 104.196 134.711 104.196 140.242C104.196 145.773 108.328 150.257 113.427 150.257Z" fill="#A96F60"/>
<path d="M123.727 128.036C128.808 128.036 132.927 124.589 132.927 120.336C132.927 116.084 128.808 112.636 123.727 112.636C118.646 112.636 114.527 116.084 114.527 120.336C114.527 124.589 118.646 128.036 123.727 128.036Z" fill="#A96F60"/>
<path d="M147.108 108.517C151.092 108.517 154.322 105.969 154.322 102.826C154.322 99.6834 151.092 97.1357 147.108 97.1357C143.123 97.1357 139.894 99.6834 139.894 102.826C139.894 105.969 143.123 108.517 147.108 108.517Z" fill="#A96F60"/>
<path d="M159.582 104.354C164.68 104.354 168.813 101.364 168.813 97.6769C168.813 93.9893 164.68 91 159.582 91C154.483 91 150.351 93.9893 150.351 97.6769C150.351 101.364 154.483 104.354 159.582 104.354Z" fill="#A96F60"/>
<path d="M138.717 168.597C144.341 168.597 148.901 166.049 148.901 162.907C148.901 159.764 144.341 157.216 138.717 157.216C133.092 157.216 128.532 159.764 128.532 162.907C128.532 166.049 133.092 168.597 138.717 168.597Z" fill="#A96F60"/>
<path d="M198.184 188.739C203.746 188.739 208.254 183.363 208.254 176.73C208.254 170.098 203.746 164.722 198.184 164.722C192.622 164.722 188.114 170.098 188.114 176.73C188.114 183.363 192.622 188.739 198.184 188.739Z" fill="#A96F60"/>
<path d="M201.121 183.485C207.841 183.485 213.289 179.621 213.289 174.854C213.289 170.087 207.841 166.223 201.121 166.223C194.401 166.223 188.953 170.087 188.953 174.854C188.953 179.621 194.401 183.485 201.121 183.485Z" fill="#A96F60"/>
<path d="M173.008 106.023C178.106 106.023 182.239 102.847 182.239 98.9289C182.239 95.0109 178.106 91.8347 173.008 91.8347C167.91 91.8347 163.777 95.0109 163.777 98.9289C163.777 102.847 167.91 106.023 173.008 106.023Z" fill="#A96F60"/>
<path d="M188.771 107.287C192.69 106.095 194.947 102.718 193.812 99.7429C192.676 96.7681 188.578 95.3222 184.659 96.5135C180.739 97.7049 178.483 101.082 179.618 104.057C180.754 107.032 184.851 108.478 188.771 107.287Z" fill="#A96F60"/>
<path d="M195.229 113.479C199.042 112.32 200.99 108.387 199.581 104.694C198.171 101.001 193.937 98.9474 190.124 100.106C186.311 101.265 184.363 105.198 185.773 108.891C187.182 112.584 191.416 114.638 195.229 113.479Z" fill="#A96F60"/>
<path d="M211.53 127.481C215.648 123.657 215.358 117.172 210.882 112.997C206.406 108.822 199.44 108.538 195.322 112.362C191.204 116.187 191.494 122.671 195.97 126.846C200.446 131.022 207.412 131.306 211.53 127.481Z" fill="#A96F60"/>
<path d="M209.338 164.312C214.219 162.828 217.093 158.79 215.758 155.293C214.423 151.795 209.384 150.163 204.504 151.646C199.623 153.13 196.749 157.168 198.084 160.665C199.419 164.163 204.458 165.796 209.338 164.312Z" fill="#A96F60"/>
<path d="M213.789 139.381C218.7 139.381 222.681 135.463 222.681 130.631C222.681 125.798 218.7 121.88 213.789 121.88C208.878 121.88 204.897 125.798 204.897 130.631C204.897 135.463 208.878 139.381 213.789 139.381Z" fill="#A96F60"/>
<path d="M219.163 151.41C224.262 151.41 228.394 147.042 228.394 141.653C228.394 136.264 224.262 131.896 219.163 131.896C214.065 131.896 209.932 136.264 209.932 141.653C209.932 147.042 214.065 151.41 219.163 151.41Z" fill="#A96F60"/>
<path d="M219.163 160.591C224.262 160.591 228.394 156.222 228.394 150.834C228.394 145.445 224.262 141.076 219.163 141.076C214.065 141.076 209.932 145.445 209.932 150.834C209.932 156.222 214.065 160.591 219.163 160.591Z" fill="#A96F60"/>
<path d="M133.487 162.92C135.209 159.593 133.001 155.41 128.554 153.577C124.107 151.744 119.107 152.954 117.384 156.28C115.662 159.606 117.87 163.789 122.317 165.623C126.764 167.456 131.764 166.246 133.487 162.92Z" fill="#A96F60"/>
<path d="M108.391 159.468C113.026 159.468 116.783 155.267 116.783 150.086C116.783 144.904 113.026 140.704 108.391 140.704C103.757 140.704 99.9995 144.904 99.9995 150.086C99.9995 155.267 103.757 159.468 108.391 159.468Z" fill="#A96F60"/>
<path d="M126.278 158.575C127.655 154.387 124.573 149.894 119.395 148.538C114.218 147.183 108.904 149.479 107.527 153.666C106.151 157.854 109.232 162.348 114.41 163.703C119.588 165.059 124.901 162.763 126.278 158.575Z" fill="#A96F60"/>
<path d="M195.826 116.123C198.651 115.104 200.155 112.545 199.186 110.407C198.217 108.269 195.142 107.362 192.317 108.381C189.493 109.401 187.989 111.96 188.958 114.098C189.926 116.236 193.002 117.143 195.826 116.123Z" fill="#A96F60"/>
<path d="M199.456 112.129C201.716 112.129 203.547 110.768 203.547 109.089C203.547 107.41 201.716 106.05 199.456 106.05C197.197 106.05 195.365 107.41 195.365 109.089C195.365 110.768 197.197 112.129 199.456 112.129Z" fill="#A96F60"/>
<path d="M163.595 98.3596C163.595 98.2434 142.823 105.312 142.823 105.312L119.594 123.156L110.792 145.453L112.546 152.636L128.113 157.593L132.309 168.1C132.309 168.1 117.726 169.601 119.594 175.231C121.461 180.86 134.528 182.87 134.528 182.87L131.595 186.109H192.814L197.728 170.699L198.605 165.473L201.961 160.22L215.082 154.254L215.998 137.079L206.702 123.154L205.098 117.155L198.144 109.478L188.828 101.894L179.452 101.778L163.595 98.3596Z" fill="#A96F60"/>
<path d="M119.316 172.974C119.316 172.974 107.075 172.974 103.68 180.043C100.285 187.111 103.114 191.151 117.26 190.898C131.405 190.646 137.912 189.131 137.346 183.829C136.78 178.528 129.858 172.721 119.316 172.974Z" fill="#A96F60"/>
<path d="M209.804 182.264C211.64 179.589 210.43 175.944 207.099 174.123C203.768 172.302 199.579 172.994 197.742 175.669C195.906 178.344 197.116 181.988 200.447 183.81C203.778 185.631 207.967 184.939 209.804 182.264Z" fill="#A96F60"/>
<path d="M205.663 188.017C207.499 185.343 205.429 181.228 201.038 178.826C196.647 176.425 191.598 176.647 189.761 179.322C187.924 181.997 189.995 186.112 194.386 188.513C198.777 190.914 203.826 190.692 205.663 188.017Z" fill="#A96F60"/>
<path d="M214.154 178.828C215.367 177.062 214.568 174.657 212.369 173.455C210.171 172.252 207.406 172.709 206.194 174.475C204.982 176.24 205.781 178.646 207.979 179.848C210.177 181.05 212.942 180.593 214.154 178.828Z" fill="#A96F60"/>
<path d="M222.356 174.134C224.303 171.299 223.721 167.819 221.057 166.362C218.392 164.905 214.654 166.023 212.707 168.858C210.76 171.693 211.341 175.173 214.006 176.63C216.67 178.087 220.408 176.97 222.356 174.134Z" fill="#A96F60"/>
<path d="M111.174 185.748C113.121 182.913 112.54 179.433 109.875 177.976C107.211 176.519 103.473 177.636 101.526 180.472C99.5784 183.307 100.16 186.787 102.824 188.244C105.489 189.701 109.227 188.584 111.174 185.748Z" fill="#A96F60"/>
<path d="M114.854 182.214C116.801 179.379 116.219 175.899 113.555 174.442C110.89 172.985 107.152 174.102 105.205 176.938C103.258 179.773 103.839 183.253 106.504 184.71C109.168 186.167 112.907 185.049 114.854 182.214Z" fill="#A96F60"/>
<path d="M136.636 187.009C138.583 184.174 138.001 180.694 135.337 179.237C132.672 177.78 128.934 178.897 126.987 181.733C125.04 184.568 125.621 188.048 128.286 189.505C130.95 190.962 134.689 189.845 136.636 187.009Z" fill="#A96F60"/>
<path d="M124.141 191.599C127.796 190.951 130.266 188.208 129.657 185.473C129.047 182.738 125.591 181.046 121.936 181.694C118.281 182.342 115.811 185.085 116.421 187.82C117.03 190.555 120.486 192.247 124.141 191.599Z" fill="#A96F60"/>
<path d="M111.694 191.6C115.349 190.952 117.819 188.209 117.21 185.474C116.6 182.739 113.144 181.047 109.489 181.696C105.834 182.344 103.364 185.086 103.973 187.821C104.583 190.557 108.039 192.248 111.694 191.6Z" fill="#A96F60"/>
<path d="M118.484 192.104C122.139 191.455 124.608 188.713 123.999 185.978C123.39 183.243 119.933 181.551 116.278 182.199C112.623 182.847 110.154 185.59 110.763 188.325C111.372 191.06 114.829 192.752 118.484 192.104Z" fill="#A96F60"/>
<path d="M120.459 180.548C125.518 179.651 129.126 176.707 128.517 173.971C127.907 171.236 123.312 169.746 118.253 170.644C113.194 171.541 109.587 174.485 110.196 177.22C110.805 179.955 115.4 181.445 120.459 180.548Z" fill="#A96F60"/>
<path d="M134.024 175.5C139.083 174.603 142.69 171.658 142.081 168.923C141.472 166.188 136.877 164.698 131.818 165.595C126.759 166.493 123.151 169.437 123.76 172.172C124.369 174.907 128.964 176.397 134.024 175.5Z" fill="#A96F60"/>
<path d="M232.734 174.48C234.681 171.644 233.668 167.929 230.47 166.18C227.273 164.432 223.103 165.313 221.156 168.148C219.209 170.983 220.222 174.699 223.419 176.448C226.617 178.196 230.787 177.315 232.734 174.48Z" fill="#A96F60"/>
<path d="M237.474 180.624C239.422 177.788 238.408 174.072 235.211 172.324C232.013 170.575 227.843 171.457 225.896 174.292C223.949 177.127 224.962 180.843 228.16 182.592C231.357 184.34 235.527 183.459 237.474 180.624Z" fill="#A96F60"/>
<path d="M215.797 192.325C217.647 189.631 215.688 185.556 211.423 183.223C207.157 180.891 202.2 181.184 200.35 183.878C198.5 186.572 200.458 190.646 204.723 192.979C208.989 195.311 213.947 195.019 215.797 192.325Z" fill="#A96F60"/>
<path d="M233.756 187.474C235.377 185.114 234.534 182.021 231.873 180.567C229.213 179.112 225.742 179.845 224.122 182.205C222.501 184.565 223.344 187.657 226.005 189.112C228.665 190.567 232.136 189.833 233.756 187.474Z" fill="#A96F60"/>
<path d="M226.65 190.973C228.271 188.613 227.428 185.52 224.767 184.066C222.107 182.611 218.636 183.344 217.016 185.704C215.395 188.064 216.238 191.156 218.899 192.611C221.559 194.066 225.03 193.332 226.65 190.973Z" fill="#A96F60"/>
<path d="M222.791 194.452C224.517 191.94 223.618 188.647 220.784 187.098C217.951 185.548 214.255 186.328 212.53 188.84C210.805 191.352 211.704 194.645 214.537 196.194C217.371 197.744 221.066 196.964 222.791 194.452Z" fill="#A96F60"/>
<path d="M224.31 172.272L220.298 172.451L210.292 175.281L206.059 178.543L202.41 181.926C202.41 181.926 203.182 187.419 203.211 187.379C203.239 187.339 205.595 189.219 205.595 189.219L215.5 192.92L220.774 189.007L225.993 186.829L228.967 180.459L225.122 172.714L224.31 172.269V172.272Z" fill="#A96F60"/>
<path d="M160.303 150.952C160.303 150.952 158.928 148.365 164.47 147.032C170.013 145.699 174.822 148.322 173.475 151C172.129 153.679 170.103 156.817 166.83 156.809C163.557 156.802 160.303 150.952 160.303 150.952Z" fill="#030406"/>
<path d="M138.125 145.325C138.125 145.325 128 146.284 128.796 155.328C124.546 159.024 127.631 166.516 134.54 168.587C141.446 170.659 150.052 171.357 155.628 169.363C160.409 166.997 166.192 165.853 171.533 167.895C176.874 169.936 188.816 173.575 197.45 166.842C206.082 160.109 198.815 151.895 195.945 150.75C195.945 148.655 194.39 143.703 187.239 143.706" stroke="#030406" stroke-width="1.25" stroke-miterlimit="10" stroke-linecap="round"/>
<path d="M132.317 146.265C132.317 146.265 127.729 143.152 129.992 137.338" stroke="#030406" stroke-width="1.25" stroke-miterlimit="10" stroke-linecap="round"/>
<path d="M194.526 143.675C194.526 143.675 197.646 139.141 195.363 134.706" stroke="#030406" stroke-width="1.25" stroke-miterlimit="10" stroke-linecap="round"/>
<path d="M153.526 142.113C154.351 142.111 155.049 140.965 155.087 139.554C155.124 138.142 154.486 136.999 153.662 137.001C152.837 137.003 152.139 138.149 152.101 139.56C152.064 140.972 152.702 142.115 153.526 142.113Z" fill="#020202"/>
<path d="M176.224 142.066C177.048 142.064 177.747 140.919 177.784 139.507C177.821 138.095 177.183 136.952 176.359 136.954C175.534 136.956 174.836 138.102 174.799 139.513C174.761 140.925 175.399 142.068 176.224 142.066Z" fill="#020202"/>
<path d="M224.554 176.379C222.406 174.758 219.039 176.269 217.624 177.226C217.217 177.483 215.765 178.893 217.106 180.694C218.446 182.495 219.546 181.417 220.386 181.902C221.226 182.386 220.304 184.124 222.698 185.126C224.613 185.928 225.649 183.929 225.927 182.829C226.364 181.354 226.701 177.999 224.554 176.379Z" fill="#FFC4C4"/>
<ellipse cx="2.1643" cy="2.64259" rx="2.1643" ry="2.64259" transform="matrix(0.860319 0.512688 -0.51277 0.856775 224.092 168.88)" fill="#FFC4C4"/>
<ellipse cx="2.16439" cy="2.64242" rx="2.16439" ry="2.64242" transform="matrix(0.724878 0.689966 -0.69126 0.721564 229.121 172.387)" fill="#FFC4C4"/>
<ellipse cx="1.99479" cy="2.36198" rx="1.99479" ry="2.36198" transform="matrix(0.245588 0.967942 -0.971509 0.242796 231.135 178.814)" fill="#FFC4C4"/>
<ellipse cx="1.99243" cy="2.36425" rx="1.99243" ry="2.36425" transform="matrix(0.9502 0.317811 -0.316653 0.94649 218.086 170.209)" fill="#FFC4C4"/>
</g>
<path d="M227.564 84.1886C224.789 90.9119 212.573 92.2386 212.056 92.2881C211.919 92.3021 211.781 92.2819 211.654 92.2295C211.527 92.177 211.415 92.0939 211.328 91.9875C210.996 91.5875 203.274 82.0299 206.049 75.3066C206.703 73.7285 207.956 72.4741 209.533 71.8186C211.11 71.1631 212.883 71.16 214.463 71.81C216.446 72.6288 217.831 74.1986 218.318 76.0872C219.996 75.0924 222.084 74.9563 224.068 75.7752C225.646 76.4287 226.9 77.6816 227.556 79.2588C228.211 80.8361 228.214 82.609 227.564 84.1886Z" fill="#FF8686"/>
<path d="M209.18 46.0614C209.365 51.2908 201.762 55.7988 201.438 55.9853C201.352 56.0352 201.256 56.0631 201.157 56.0667C201.058 56.0702 200.96 56.0491 200.871 56.0054C200.535 55.8423 192.631 51.8846 192.446 46.6552C192.403 45.4271 192.85 44.2325 193.688 43.3334C194.525 42.4343 195.685 41.9041 196.913 41.8591C198.456 41.8044 199.83 42.4198 200.712 43.5113C201.514 42.3601 202.841 41.6488 204.384 41.594C205.612 41.5518 206.806 41.9985 207.705 42.836C208.604 43.6735 209.135 44.8335 209.18 46.0614Z" fill="#FF8686"/>
<path d="M247.97 31.3695C247.302 34.4088 242.254 35.8781 242.04 35.9375C241.983 35.9536 241.924 35.9554 241.866 35.9428C241.809 35.9302 241.756 35.9035 241.711 35.8651C241.541 35.7213 237.576 32.2704 238.244 29.231C238.402 28.5175 238.836 27.8957 239.452 27.502C240.067 27.1083 240.814 26.9748 241.528 27.131C242.425 27.3281 243.125 27.8863 243.471 28.6456C244.103 28.1014 244.973 27.8885 245.87 28.0856C246.583 28.2433 247.205 28.6777 247.599 29.2933C247.993 29.9089 248.126 30.6556 247.97 31.3695Z" fill="#FF8686"/>
<defs>
<clipPath id="clip0_316_2074">
<rect width="143" height="108" fill="white" transform="translate(98 91)"/>
</clipPath>
</defs>
</svg>
