<svg width="339" height="223" viewBox="0 0 339 223" fill="none" xmlns="http://www.w3.org/2000/svg">
<path d="M14.9609 203H4.50195V173.305H15.084C24.0254 173.305 29.501 178.862 29.4805 188.111C29.501 197.401 24.0254 203 14.9609 203ZM10.6543 197.709H14.7148C20.375 197.709 23.3281 194.776 23.3281 188.111C23.3281 181.508 20.375 178.596 14.7559 178.596H10.6543V197.709ZM42.658 203.451C35.8289 203.431 31.6453 199.021 31.6658 191.967C31.6453 185.097 35.8904 180.441 42.4119 180.441C48.2566 180.441 52.8709 184.133 52.8709 191.721V193.443H37.6541C37.6541 196.807 39.6433 198.878 42.781 198.898C44.8523 198.878 46.3289 197.976 46.9236 196.643H52.7068C51.8455 200.765 48.1541 203.431 42.658 203.451ZM37.6541 189.629H47.1287C47.1082 186.922 45.242 184.974 42.5349 184.994C39.7459 184.974 37.7771 187.065 37.6541 189.629ZM63.6284 203.369C58.5425 203.369 54.564 199.329 54.564 191.885C54.564 184.256 58.7066 180.441 63.6284 180.441C67.3609 180.441 69.145 182.656 69.9448 184.461H70.1499V173.305H76.2202V203H70.232V199.432H69.9448C69.104 201.277 67.2583 203.369 63.6284 203.369ZM60.7984 191.844C60.7779 195.781 62.439 198.509 65.5152 198.529C68.5503 198.509 70.273 195.863 70.273 191.844C70.273 187.845 68.5708 185.281 65.5152 185.281C62.4185 185.281 60.7779 187.968 60.7984 191.844ZM79.8411 203V180.729H85.9114V203H79.8411ZM79.554 174.74C79.554 173.018 81.0511 171.644 82.8763 171.623C84.6809 171.644 86.178 173.018 86.1575 174.74C86.178 176.422 84.6809 177.816 82.8763 177.816C81.0511 177.816 79.554 176.422 79.554 174.74ZM99.376 203.451C92.5469 203.431 88.4454 198.714 88.4659 191.926C88.4454 185.117 92.6289 180.441 99.376 180.441C105.118 180.441 109.015 183.784 109.261 188.891H103.56C103.19 186.696 101.755 185.179 99.458 185.158C96.5459 185.179 94.6182 187.619 94.6182 191.844C94.6182 196.15 96.5049 198.611 99.458 198.611C101.591 198.611 103.17 197.278 103.56 194.92H109.261C108.994 199.965 105.282 203.431 99.376 203.451ZM110.708 196.766C110.728 191.803 114.707 190.183 118.993 189.916C120.593 189.813 123.587 189.67 124.53 189.629V187.824C124.51 185.958 123.238 184.892 120.962 184.871C118.89 184.892 117.598 185.814 117.27 187.332H111.487C111.856 183.477 115.22 180.441 121.126 180.441C125.986 180.441 130.58 182.615 130.559 187.988V203H124.817V199.924H124.653C123.566 201.975 121.433 203.431 118.132 203.41C113.866 203.431 110.728 201.175 110.708 196.766ZM116.532 196.602C116.532 198.304 117.906 199.206 119.854 199.227C122.623 199.206 124.551 197.401 124.53 195.043V193.423C123.607 193.464 121.003 193.607 119.977 193.689C117.865 193.874 116.532 194.879 116.532 196.602ZM145.665 180.729V185.281H141.481V196.15C141.461 197.935 142.342 198.365 143.573 198.406C144.188 198.406 145.254 198.345 145.993 198.283V203.082C145.336 203.185 144.25 203.308 142.753 203.287C138.364 203.308 135.37 201.339 135.411 197.012V185.281H132.335V180.729H135.411V175.396H141.481V180.729H145.665ZM158.063 203.451C151.234 203.431 147.05 199.021 147.071 191.967C147.05 185.097 151.295 180.441 157.817 180.441C163.661 180.441 168.276 184.133 168.276 191.721V193.443H153.059C153.059 196.807 155.048 198.878 158.186 198.898C160.257 198.878 161.734 197.976 162.328 196.643H168.112C167.25 200.765 163.559 203.431 158.063 203.451ZM153.059 189.629H162.534C162.513 186.922 160.647 184.974 157.94 184.994C155.151 184.974 153.182 187.065 153.059 189.629ZM179.033 203.369C173.947 203.369 169.969 199.329 169.969 191.885C169.969 184.256 174.111 180.441 179.033 180.441C182.766 180.441 184.55 182.656 185.35 184.461H185.555V173.305H191.625V203H185.637V199.432H185.35C184.509 201.277 182.663 203.369 179.033 203.369ZM176.203 191.844C176.183 195.781 177.844 198.509 180.92 198.529C183.955 198.509 185.678 195.863 185.678 191.844C185.678 187.845 183.976 185.281 180.92 185.281C177.823 185.281 176.183 187.968 176.203 191.844ZM210.433 203L201.943 173.305H208.67L213.673 194.059H213.92L219.375 173.305H225.158L230.613 194.1H230.859L235.863 173.305H242.589L234.099 203H228.07L222.41 183.395H222.164L216.462 203H210.433ZM251.952 203.451C245.226 203.431 241.022 198.816 241.042 191.926C241.022 185.056 245.226 180.441 251.952 180.441C258.7 180.441 262.883 185.056 262.904 191.926C262.883 198.816 258.7 203.431 251.952 203.451ZM247.195 191.926C247.195 195.822 248.815 198.714 251.994 198.734C255.09 198.714 256.731 195.822 256.71 191.926C256.731 188.009 255.09 185.076 251.994 185.076C248.815 185.076 247.195 188.009 247.195 191.926ZM265.458 203V180.729H271.323V184.584H271.569C272.369 181.856 274.441 180.4 276.943 180.4C277.558 180.4 278.337 180.482 278.87 180.605V186.02C278.296 185.835 277.127 185.691 276.286 185.691C273.538 185.691 271.508 187.599 271.528 190.326V203H265.458ZM280.563 203V173.305H286.634V189.26H286.962L294.181 180.729H301.153L292.848 190.367L301.604 203H294.468L288.336 193.936L286.634 195.863V203H280.563ZM311.87 203.451C305.041 203.431 300.857 199.021 300.878 191.967C300.857 185.097 305.102 180.441 311.624 180.441C317.468 180.441 322.083 184.133 322.083 191.721V193.443H306.866C306.866 196.807 308.855 198.878 311.993 198.898C314.064 198.878 315.541 197.976 316.135 196.643H321.919C321.057 200.765 317.366 203.431 311.87 203.451ZM306.866 189.629H316.34C316.32 186.922 314.454 184.974 311.747 184.994C308.958 184.974 306.989 187.065 306.866 189.629ZM324.637 203V180.729H330.502V184.584H330.748C331.548 181.856 333.62 180.4 336.121 180.4C336.737 180.4 337.516 180.482 338.049 180.605V186.02C337.475 185.835 336.306 185.691 335.465 185.691C332.717 185.691 330.687 187.599 330.707 190.326V203H324.637Z" fill="white"/>
<g opacity="0.2">
<path d="M53.2046 64.8734C39.6562 71.0659 38.2731 91.0973 39.2752 100.339C39.4746 102.949 42.5964 113.52 54.9242 111.665C67.252 109.809 64.8391 101.78 69.4068 98.9763C73.9746 96.1728 80.0898 105.029 91.2512 96.077C100.18 88.9156 93.0804 78.8428 88.4142 74.7016C82.3229 68.8453 66.7531 58.6808 53.2046 64.8734Z" fill="#89C8FF" stroke="#89C8FF" stroke-width="2" stroke-linecap="round"/>
<path d="M43.0159 48.291C47.0982 54.9168 45.832 62.8157 40.4538 66.0123C35.0756 69.2089 27.3637 66.6461 23.2814 60.0204C19.1991 53.3947 20.4653 45.4958 25.8435 42.2992C31.2217 39.1026 38.9337 41.6653 43.0159 48.291Z" fill="#89C8FF" stroke="#89C8FF"/>
<path d="M72.5103 39.0769C74.9816 46.4303 71.9595 53.8676 65.9943 55.8196C60.0291 57.7716 53.1019 53.5899 50.6306 46.2365C48.1592 38.8831 51.1814 31.4457 57.1466 29.4938C63.1118 27.5418 70.039 31.7235 72.5103 39.0769Z" fill="#89C8FF" stroke="#89C8FF"/>
<path d="M100.14 56.9565C98.4338 63.6661 92.4285 67.8608 86.8378 66.5266C81.2471 65.1924 77.9402 58.7755 79.6464 52.0658C81.3525 45.3562 87.3578 41.1615 92.9485 42.4957C98.5393 43.8299 101.846 50.2468 100.14 56.9565Z" fill="#89C8FF" stroke="#89C8FF"/>
<path d="M30.8278 74.8994C35.674 79.8964 36.0101 87.0908 31.8255 90.9848C27.6408 94.8789 20.3231 94.1811 15.477 89.1841C10.6309 84.1871 10.2947 76.9927 14.4794 73.0986C18.664 69.2046 25.9817 69.9024 30.8278 74.8994Z" fill="#89C8FF" stroke="#89C8FF"/>
<path d="M281.667 121.471C276.98 118.289 270.06 121.845 267.185 124.021C266.357 124.609 263.452 127.743 266.461 131.394C269.47 135.045 271.669 132.651 273.486 133.581C275.304 134.511 273.55 138.278 278.689 140.129C282.8 141.61 284.767 137.278 285.237 134.926C285.999 131.767 286.353 124.653 281.667 121.471Z" fill="#89C8FF" stroke="#89C8FF" stroke-width="2" stroke-linecap="round"/>
<path d="M284.917 114.677C283.559 117.241 280.856 118.269 278.952 117.26C277.049 116.252 276.38 113.438 277.739 110.874C279.097 108.31 281.8 107.282 283.704 108.29C285.607 109.299 286.276 112.113 284.917 114.677Z" fill="#89C8FF" stroke="#89C8FF"/>
<path d="M293.746 122.407C291.852 124.605 288.988 125.007 287.356 123.601C285.724 122.195 285.697 119.303 287.591 117.104C289.485 114.906 292.349 114.504 293.981 115.91C295.613 117.316 295.64 120.208 293.746 122.407Z" fill="#89C8FF" stroke="#89C8FF"/>
<path d="M293.315 134.906C290.865 135.658 288.516 134.566 287.939 132.686C287.362 130.807 288.694 128.584 291.143 127.832C293.593 127.08 295.942 128.172 296.519 130.052C297.096 131.932 295.765 134.154 293.315 134.906Z" fill="#89C8FF" stroke="#89C8FF"/>
<path d="M273.691 116.085C273.004 118.554 270.817 119.944 268.923 119.416C267.029 118.889 265.876 116.569 266.563 114.1C267.251 111.632 269.437 110.242 271.331 110.77C273.225 111.297 274.379 113.617 273.691 116.085Z" fill="#89C8FF" stroke="#89C8FF"/>
</g>
<path d="M200.387 76.406C200.387 76.406 196.751 64.6765 183.427 62.0315C169.758 59.3179 164.422 59.583 164.422 59.583C164.422 59.583 159.378 60.1301 160.464 63.1589C161.549 66.1877 171.781 81.517 173.4 86.9651C175.018 92.4132 182.221 99.1303 182.76 100.946C183.3 102.762 184.338 110.014 183.205 111.208C183.205 111.208 184.891 110.624 186.024 109.43C186.024 109.43 186.476 119.088 183.057 124.48C185.876 122.701 186.436 122.708 187.002 122.111C186.975 124.524 187.481 129.356 183.536 131.725C179.591 134.095 141.039 127.631 124.706 136.499C101.671 144.086 99.837 157.942 90.3355 156.629C90.3355 156.629 93.6735 158.477 94.7929 158.489C94.7929 158.489 86.8695 166.244 83.9902 173.452C82.683 176.732 78.836 178.855 74.244 180.022C68.7426 181.421 62.1314 184.448 57.5696 183.414C49.1941 181.511 39.6387 185.024 39.6387 185.024C39.6387 185.024 36.2603 186.796 31.7692 187.953C27.278 189.11 25.5653 192.107 24.9652 195.721C22.7331 195.092 27.7839 193.942 27.7839 193.942C27.7839 193.942 19.9143 196.871 22.1464 197.499C20.4606 198.084 29.9824 197.587 29.9824 197.587C29.9824 197.587 25.7744 199.953 28.2629 201.187C25.7274 201.159 32.7809 197.618 32.7809 197.618L38.378 197.68C42.8556 197.73 31.5807 204.844 35.492 205.491C39.4032 206.138 47.2727 203.209 52.8766 202.669C58.4804 202.128 62.9109 206.401 65.7162 205.829C68.5215 205.256 73.0395 201.687 75.838 201.718C78.6366 201.749 79.7358 203.572 81.9747 203.597C84.2135 203.622 84.7799 203.024 84.7799 203.024C84.7799 203.024 91.9956 208.535 100.398 208.025C108.8 207.516 109.38 205.712 109.98 202.099C110.54 202.105 112.812 199.114 112.812 199.114L118.396 200.383L146.881 206.131L178.932 193.215L255.126 187.428L274.183 185.227C274.183 185.227 266.543 167.645 263.211 165.194C259.88 162.744 255.53 151.232 255.53 151.232C255.53 151.232 258.322 151.866 260.561 151.891C257.776 150.654 251.106 146.356 251.147 142.736C251.187 139.117 250.108 135.485 250.108 135.485L251.207 137.307C251.207 137.307 251.841 130.677 250.195 127.642C251.308 128.258 252.407 130.08 252.407 130.08C252.407 130.08 250.802 123.426 250.263 121.61C251.369 122.829 254.747 121.056 254.747 121.056C254.747 121.056 250.276 120.403 249.217 114.961C249.217 114.961 252.002 116.199 253.102 118.021C252.576 114.999 249.844 108.935 249.844 108.935L254.882 108.991C250.97 108.344 248.233 102.883 248.259 100.47C248.286 98.0573 246.122 91.3964 246.708 88.9895C247.295 86.5827 251.334 75.7677 250.329 65.4997C249.843 58.8575 249.85 58.2543 252.102 57.0727C254.355 55.8912 255.474 55.9036 255.508 52.8873C255.521 51.6808 253.835 52.2653 249.358 52.2154C244.88 52.1654 234.239 52.6501 227.988 61.0271C221.737 69.4041 220.031 71.7984 220.031 71.7984C220.031 71.7984 209.396 71.6798 200.387 76.406Z" fill="#4A4A4A"/>
<path d="M201.513 75.8152C201.513 75.8152 208.729 81.3258 212.026 86.7926C215.324 92.2595 215.311 93.466 215.29 95.2758C215.27 97.0856 211.851 102.478 209.013 106.066C206.174 109.654 206.666 115.693 206.666 115.693C206.666 115.693 207.179 119.922 209.957 121.763C208.264 122.951 210.322 139.264 198.399 154.215C186.477 169.165 182.553 169.725 179.147 173.91C177.448 175.701 176.902 174.488 174.09 175.664C171.278 176.839 166.193 181.006 159.936 189.986C153.678 198.966 146.368 201.901 143.536 204.887C140.704 207.872 138.418 212.07 144.561 213.345C146.233 213.967 146.22 215.173 150.698 215.223C155.175 215.273 157.448 212.282 157.448 212.282C157.448 212.282 157.994 213.495 161.352 213.532C164.71 213.57 166.029 208.806 166.029 208.806C166.029 208.806 168.676 209.39 169.262 206.984C169.849 204.577 169.309 202.761 170.995 202.176L176.053 200.423C176.053 200.423 177.152 202.245 175.466 202.829C177.152 202.245 181.09 200.479 182.789 198.688C184.462 199.31 190.018 202.992 200.653 203.11C211.287 203.229 211.294 202.626 211.294 202.626C211.294 202.626 212.953 204.454 220.229 204.535C223.028 204.567 226.406 202.794 226.406 202.794C226.406 202.794 226.939 205.214 226.379 205.207C227.499 205.22 230.324 202.838 232.03 200.444C232.576 201.656 233.676 203.479 233.109 204.076C234.795 203.491 238.753 199.915 239.886 198.721C241.019 197.527 244.937 197.571 247.176 197.596C248.842 198.821 251.627 200.059 256.651 201.322C258.883 201.95 261.122 201.975 261.648 204.997C262.174 208.02 263.853 208.039 263.853 208.039C263.853 208.039 264.932 211.671 270.516 212.94C271.628 213.555 272.174 214.768 275.533 214.806C278.891 214.843 280.59 213.052 281.723 211.858C282.269 213.071 283.389 213.083 285.068 213.102C286.747 213.121 289.013 210.733 290.732 207.132C292.452 203.531 289.687 200.483 284.69 196.808C279.693 193.132 270.859 182.173 270.859 182.173C270.859 182.173 263.657 175.456 260.865 174.822C258.073 174.187 234.577 122.641 234.638 117.212C236.337 115.421 236.358 113.611 236.371 112.404C236.384 111.198 235.872 106.969 232.547 103.915C229.223 100.861 221.434 96.551 219.809 91.7061C218.183 86.8613 218.351 71.7797 218.351 71.7797C218.351 71.7797 208.836 71.6735 201.513 75.8152Z" fill="#FDF9F3"/>
<path d="M84.2001 204.828C84.2001 204.828 82.1094 191.531 93.87 191.059C105.631 190.587 108.183 198.157 108.183 198.157C108.183 198.157 106.757 189.996 115.719 189.493C124.681 188.989 143.118 192.212 146.395 199.488C148.027 203.73 140.697 208.475 140.697 208.475C140.697 208.475 140.137 208.469 139.584 207.859C138.458 208.45 135.1 208.412 132.861 208.388C130.622 208.363 127.824 208.331 125.605 206.497C122.807 206.465 116.09 206.39 114.445 203.355C113.878 203.952 113.312 204.549 112.192 204.537C111.073 204.524 109.974 202.702 109.974 202.702C109.974 202.702 110.401 209.078 105.395 209.155C100.39 209.232 100.391 208.629 100.391 208.629C100.391 208.629 99.2473 209.316 96.7403 209.24C94.2334 209.163 89.7636 207.907 89.2173 206.694C88.6576 206.688 87.5315 207.279 84.2001 204.828Z" fill="#FDF9F3"/>
<path d="M72.1509 180.482C72.1509 180.482 67.6309 184.733 64.8324 184.702C67.6242 185.336 75.4601 185.424 75.4601 185.424C75.4601 185.424 65.8673 192.285 64.7497 192.11C66.4173 193.166 70.8747 195.026 73.1136 195.051C69.7486 195.617 65.7903 199.193 65.7903 199.193L75.2779 201.76C75.2779 201.76 69.416 204.355 66.9964 205.988C64.5767 207.62 58.4401 205.741 55.6348 206.313C52.8296 206.885 38.2772 206.723 34.9256 206.082C31.5741 205.442 28.2024 206.611 26.5233 206.592C24.8442 206.573 19.5146 207.117 19.1285 204.096C19.827 204.707 20.9531 204.116 21.5128 204.123C21.5128 204.123 19.2841 203.193 14.2349 204.192C14.2366 204.042 16.7764 201.174 22.0004 197.552C20.4674 197.474 18.2757 193.226 18.2757 193.226C18.2757 193.226 20.5011 194.458 22.1802 194.477C22.7534 193.276 23.145 188.279 32.5214 185.759C35.1612 184.968 38.0313 181.591 49.2266 180.105C60.422 178.619 60.9413 182.245 72.151 180.476L72.1509 180.482Z" fill="#FDF9F3"/>
<path d="M89.2122 207.146C89.2122 207.146 89.7988 204.74 88.6929 203.521" stroke="#4A4A4A" stroke-miterlimit="10" stroke-linecap="round"/>
<path d="M100.168 203.498C100.168 203.498 101.137 206.025 100.609 208.685" stroke="#4A4A4A" stroke-miterlimit="10" stroke-linecap="round"/>
<path d="M125.607 206.346C125.607 206.346 127.293 205.761 127.333 202.142" stroke="#4A4A4A" stroke-miterlimit="10" stroke-linecap="round"/>
<path d="M139.579 208.311C139.579 208.311 141.845 205.923 141.872 203.51" stroke="#4A4A4A" stroke-miterlimit="10" stroke-linecap="round"/>
<path d="M144.837 213.649C144.837 213.649 143.772 208.811 147.157 206.435" stroke="#4A4A4A" stroke-miterlimit="10" stroke-linecap="round"/>
<path d="M157.718 213.19C157.718 213.19 155.499 211.355 155.56 205.926" stroke="#FDF9F3" stroke-miterlimit="10" stroke-linecap="round"/>
<path d="M269.679 212.629C269.679 212.629 270.799 212.641 270.833 209.625" stroke="#4A4A4A" stroke-miterlimit="10" stroke-linecap="round"/>
<path d="M280.941 206.721C280.941 206.721 282.58 210.359 281.993 212.766" stroke="#4A4A4A" stroke-miterlimit="10" stroke-linecap="round"/>
<path d="M189.482 68.0546C189.482 68.0546 180.27 63.7713 167.482 63.1094C163.035 62.5986 162.179 64.734 166.815 69.798C171.451 74.862 172.006 82.1748 176.852 78.6995C181.697 75.2242 188.688 69.5761 188.688 69.5761C188.688 69.5761 190.753 68.2005 189.482 68.0546Z" fill="#FFC3C3"/>
<path d="M245.952 56.4007C245.952 56.4007 232.876 56.8581 225.253 71.8566C224.495 73.0548 233.423 75.5678 241.772 79.8843C243.997 81.1158 246.236 81.1408 246.283 76.9179C246.33 72.6951 245.918 59.417 247.618 57.6259C249.317 55.8349 245.952 56.4007 245.952 56.4007Z" fill="#FFC3C3"/>
<path d="M216.822 108.566C216.822 108.566 215.169 106.135 219.674 103.772C224.179 101.408 228.782 103.27 228.116 106.279C227.449 109.288 226.29 112.895 223.484 113.467C220.679 114.039 216.822 108.566 216.822 108.566Z" fill="#111111"/>
<path d="M186.409 125.115C186.409 125.115 186.357 129.778 183.595 130.96C183.578 130.966 183.562 130.971 183.545 130.983C182.419 131.562 193.593 133.454 199.73 135.291C206.98 137.731 251.101 140.823 251.101 140.823C251.101 140.823 251.724 141.18 251.73 140.589C251.737 139.998 252.364 133.959 251.817 132.849C251.269 131.739 218.246 131.37 202.608 128.246C186.969 125.121 186.416 124.523 186.409 125.115Z" fill="#C40000"/>
<path d="M234.388 114.494C234.388 114.494 252.326 112.281 259.987 128.053C260.54 128.662 265.949 145.616 262.355 166.693" stroke="#C40000" stroke-width="3" stroke-miterlimit="10" stroke-linecap="round"/>
<path d="M260.966 165.773L263.881 167.374C263.881 167.374 257.653 170.188 256.165 181.122C254.677 192.056 257.835 198.988 257.835 198.988L253.886 198.274C253.886 198.274 251.814 187.282 253.421 180.76C255.027 174.238 257.005 169.059 260.966 165.773Z" fill="#5B0000"/>
<path d="M263.764 165.804L260.966 165.773C260.966 165.773 264.876 171.512 261.792 182.054C258.707 192.596 253.886 198.274 253.886 198.274L257.79 199.524C257.79 199.524 263.219 189.63 264.412 183.006C265.606 176.383 266 170.607 263.764 165.804Z" fill="#C40000" stroke="#C40000"/>
<path d="M260.966 165.773C260.966 165.773 255.687 169.304 253.421 180.76C251.728 191.01 253.893 197.671 253.893 197.671C253.893 197.671 260.022 189.703 262.142 180.773C264.262 171.843 260.966 165.773 260.966 165.773Z" stroke="#9E0000" stroke-width="2" stroke-linejoin="round"/>
<path d="M183.501 131.369C183.501 131.369 184.932 132.592 191.218 133.567C193.029 133.852 199.724 135.84 202.515 136.504C205.307 137.169 228.558 140.33 240.699 140.93C245.01 140.858 251.16 141.53 251.16 141.53C251.16 141.53 251.708 141.089 251.726 140.933C251.745 140.776 251.733 140.329 251.733 140.329L233.836 138.923C233.836 138.923 204.751 136.855 202.526 135.557C200.301 134.259 187.684 132.236 185.337 131.389C184.662 131.201 183.467 130.91 183.501 131.369Z" fill="#870000"/>
<path d="M187.218 127.845C187.218 127.845 184.174 132.299 174.619 132.211C165.065 132.122 159.965 137.188 157.327 147.874C154.688 158.56 176.491 196.807 176.137 210.982C175.782 225.156 193.748 219.927 193.748 219.927C193.748 219.927 210.55 216.186 204.872 174.643C199.195 133.1 198.421 123.215 208.022 119.63" stroke="#C40000" stroke-width="3" stroke-miterlimit="10" stroke-linecap="round"/>
<path d="M206.666 115.693C206.666 115.693 206.619 119.916 209.957 121.763C213.295 123.611 229.567 120.172 229.567 120.172L234.638 117.212C234.638 117.212 236.331 116.006 236.368 112.7C234.699 111.783 233.013 112.367 233.013 112.367L226.802 117.124L221.185 118.872L215.601 117.603L206.68 114.487L206.666 115.693Z" fill="#FDF9F3"/>
<path d="M208.838 121.751C208.838 121.751 217.193 125.464 223.43 118.293C225.656 119.525 231.284 121.325 235.764 116.621" stroke="#4A4A4A" stroke-miterlimit="10" stroke-linecap="round"/>
<path d="M208.498 96.7674C209.112 96.6555 209.461 95.607 209.278 94.4255C209.094 93.244 208.448 92.3769 207.833 92.4888C207.219 92.6007 206.87 93.6492 207.054 94.8307C207.237 96.0122 207.884 96.8793 208.498 96.7674Z" fill="#020202"/>
<path d="M225.4 93.6847C226.014 93.5728 226.363 92.5243 226.18 91.3427C225.996 90.1612 225.35 89.2941 224.736 89.406C224.121 89.5179 223.772 90.5664 223.956 91.748C224.139 92.9295 224.786 93.7966 225.4 93.6847Z" fill="#020202"/>
<ellipse cx="241" cy="192.779" rx="11" ry="11.4743" fill="#BEFF4E"/>
<path d="M232 185.129C233.097 187.679 234.633 194.156 232 199.664M246.993 181.305C247.115 182.962 245.546 187.088 243.206 191.002C240.38 195.731 242.971 202.723 245.531 204.253" stroke="white" stroke-width="2" stroke-linecap="round"/>
<path d="M77.0121 110.625C78.1501 109.046 80.6382 110.019 80.5746 112.018L80.467 115.398C80.4386 116.289 80.9786 117.116 81.7976 117.437L84.9678 118.677C86.7445 119.371 86.743 121.963 84.9656 122.518L81.481 123.607C80.7058 123.85 80.175 124.568 80.1482 125.411L80.029 129.155C79.9661 131.13 77.4766 131.759 76.4191 130.067L74.7058 127.327C74.2122 126.537 73.2764 126.171 72.4287 126.436L69.486 127.356C67.6697 127.924 66.1321 125.719 67.2564 124.159L69.3879 121.202C69.8677 120.537 69.8866 119.618 69.4352 118.896L67.4064 115.651C66.3715 113.996 67.909 112.005 69.6857 112.7L72.8559 113.94C73.6749 114.26 74.5807 113.998 75.0878 113.295L77.0121 110.625Z" fill="#FFD850"/>
<path d="M264.927 10.3197C265.126 8.39249 267.675 7.84548 268.647 9.52145L272.12 15.5096C272.554 16.2591 273.422 16.6435 274.269 16.4617L281.038 15.0091C282.932 14.6025 284.24 16.8575 282.946 18.2999L278.324 23.4533C277.746 24.0984 277.648 25.0426 278.083 25.7921L281.556 31.7802C282.528 33.4562 280.788 35.3969 279.016 34.6123L272.687 31.8092C271.895 31.4583 270.966 31.6575 270.388 32.3026L265.766 37.456C264.473 38.8984 262.089 37.8428 262.288 35.9155L262.998 29.0296C263.087 28.1678 262.61 27.3467 261.818 26.9958L255.489 24.1927C253.717 23.4081 253.985 20.8151 255.879 20.4085L262.647 18.9559C263.494 18.7741 264.128 18.0675 264.217 17.2056L264.927 10.3197Z" fill="#FFD850"/>
</svg>
