<svg width="337" height="201" viewBox="0 0 337 201" fill="none" xmlns="http://www.w3.org/2000/svg">
<path d="M32.4658 154.883C31.751 150.117 28.0874 147.228 23.0537 147.198C16.3521 147.228 11.9141 152.351 11.9141 161.436C11.9141 170.729 16.4116 175.643 22.9941 175.673C27.9087 175.643 31.6021 172.962 32.4658 168.286L41.5205 168.346C40.5376 176.328 33.8359 183.596 22.875 183.596C11.3481 183.596 2.7998 175.464 2.7998 161.436C2.7998 147.347 11.4971 139.275 22.875 139.275C32.8232 139.275 40.3291 144.964 41.5205 154.883H32.4658ZM54.5831 139.871V183H45.7667V139.871H54.5831ZM58.0548 173.945C58.0846 166.737 63.8629 164.384 70.088 163.997C72.4113 163.848 76.7599 163.64 78.13 163.58V160.959C78.1003 158.249 76.2536 156.7 72.9474 156.67C69.9391 156.7 68.0627 158.04 67.5861 160.244H59.1867C59.7228 154.645 64.6076 150.236 73.1857 150.236C80.2448 150.236 86.9167 153.394 86.8869 161.197V183H78.547V178.532H78.3088C76.7301 181.511 73.6325 183.625 68.8371 183.596C62.6418 183.625 58.0846 180.349 58.0548 173.945ZM66.5138 173.707C66.5138 176.179 68.5094 177.49 71.339 177.52C75.36 177.49 78.1598 174.869 78.13 171.443V169.09C76.7897 169.15 73.007 169.358 71.5177 169.478C68.4499 169.746 66.5138 171.205 66.5138 173.707ZM110.255 160.244C109.868 157.98 107.902 156.521 104.953 156.491C102.094 156.521 99.9197 157.861 99.9495 159.827C99.9197 161.287 101.052 162.418 104.119 163.044L109.898 164.235C116.182 165.546 119.22 168.346 119.25 172.992C119.22 179.366 113.502 183.625 104.894 183.655C96.1667 183.625 91.0437 179.724 90.2991 173.409H99.175C99.592 175.941 101.647 177.251 104.894 177.281C108.111 177.251 110.255 175.971 110.255 173.886C110.255 172.218 108.885 171.175 105.847 170.55L100.486 169.478C94.3201 168.256 91.1628 165.099 91.1926 160.304C91.1628 154.108 96.4944 150.236 104.834 150.236C112.995 150.236 118.059 154.108 118.535 160.244H110.255ZM141.308 160.244C140.921 157.98 138.955 156.521 136.006 156.491C133.147 156.521 130.972 157.861 131.002 159.827C130.972 161.287 132.104 162.418 135.172 163.044L140.951 164.235C147.235 165.546 150.273 168.346 150.303 172.992C150.273 179.366 144.555 183.625 135.947 183.655C127.22 183.625 122.097 179.724 121.352 173.409H130.228C130.645 175.941 132.7 177.251 135.947 177.281C139.163 177.251 141.308 175.971 141.308 173.886C141.308 172.218 139.938 171.175 136.9 170.55L131.538 169.478C125.373 168.256 122.216 165.099 122.245 160.304C122.216 154.108 127.547 150.236 135.887 150.236C144.048 150.236 149.112 154.108 149.588 160.244H141.308ZM195.133 154.883C194.418 150.117 190.755 147.228 185.721 147.198C179.02 147.228 174.582 152.351 174.582 161.436C174.582 170.729 179.079 175.643 185.662 175.673C190.576 175.643 194.27 172.962 195.133 168.286L204.188 168.346C203.205 176.328 196.503 183.596 185.542 183.596C174.016 183.596 165.467 175.464 165.467 161.436C165.467 147.347 174.165 139.275 185.542 139.275C195.491 139.275 202.997 144.964 204.188 154.883H195.133ZM217.251 139.871V183H208.434V139.871H217.251ZM236.806 183.655C227.037 183.625 220.931 176.924 220.961 166.916C220.931 156.938 227.037 150.236 236.806 150.236C246.606 150.236 252.682 156.938 252.712 166.916C252.682 176.924 246.606 183.625 236.806 183.655ZM229.896 166.916C229.896 172.575 232.249 176.775 236.866 176.805C241.363 176.775 243.746 172.575 243.716 166.916C243.746 161.227 241.363 156.968 236.866 156.968C232.249 156.968 229.896 161.227 229.896 166.916ZM261.962 183L253.145 150.653H262.081L267.144 172.516H267.442L272.744 150.653H281.501L286.862 172.396H287.16L292.164 150.653H301.099L292.223 183H282.93L277.331 162.448H276.914L271.314 183H261.962ZM312.554 164.295V183H303.737V150.653H312.137V156.312H312.494C313.953 152.589 317.409 150.236 322.204 150.236C328.965 150.236 333.373 154.853 333.344 162.389V183H324.587V163.938C324.557 159.946 322.412 157.563 318.749 157.563C315.085 157.563 312.554 160.036 312.554 164.295Z" fill="white"/>
<g opacity="0.2">
<path d="M53.2049 43.8734C39.6564 50.0659 38.2734 70.0973 39.2754 79.3389C39.4749 81.949 42.5967 92.5205 54.9244 90.6646C67.2522 88.8087 64.8393 80.7797 69.4071 77.9763C73.9748 75.1728 80.09 84.0288 91.2515 75.077C100.181 67.9156 93.0806 57.8428 88.4145 53.7016C82.3231 47.8453 66.7534 37.6808 53.2049 43.8734Z" fill="#89C8FF" stroke="#89C8FF" stroke-width="2" stroke-linecap="round"/>
<path d="M43.0159 27.291C47.0982 33.9168 45.832 41.8157 40.4538 45.0123C35.0756 48.2089 27.3637 45.6461 23.2814 39.0204C19.1991 32.3947 20.4653 24.4958 25.8435 21.2992C31.2217 18.1026 38.9337 20.6653 43.0159 27.291Z" fill="#89C8FF" stroke="#89C8FF"/>
<path d="M72.5105 18.0769C74.9819 25.4303 71.9597 32.8676 65.9945 34.8196C60.0293 36.7716 53.1022 32.5899 50.6308 25.2365C48.1595 17.8831 51.1817 10.4457 57.1469 8.49377C63.1121 6.5418 70.0392 10.7235 72.5105 18.0769Z" fill="#89C8FF" stroke="#89C8FF"/>
<path d="M100.14 35.9565C98.434 42.6661 92.4288 46.8608 86.8381 45.5266C81.2473 44.1924 77.9405 37.7755 79.6466 31.0658C81.3528 24.3562 87.3581 20.1615 92.9488 21.4957C98.5395 22.8299 101.846 29.2468 100.14 35.9565Z" fill="#89C8FF" stroke="#89C8FF"/>
<path d="M30.8278 53.8994C35.674 58.8964 36.0101 66.0908 31.8255 69.9848C27.6408 73.8789 20.3231 73.1811 15.477 68.1841C10.6309 63.1871 10.2947 55.9927 14.4794 52.0986C18.664 48.2046 25.9817 48.9024 30.8278 53.8994Z" fill="#89C8FF" stroke="#89C8FF"/>
<path d="M281.667 100.471C276.98 97.2886 270.06 100.845 267.185 103.021C266.357 103.609 263.452 106.743 266.461 110.394C269.47 114.045 271.669 111.651 273.486 112.581C275.304 113.511 273.55 117.278 278.689 119.129C282.8 120.61 284.767 116.278 285.237 113.926C285.999 110.767 286.353 103.653 281.667 100.471Z" fill="#89C8FF" stroke="#89C8FF" stroke-width="2" stroke-linecap="round"/>
<path d="M284.917 93.6766C283.559 96.2407 280.856 97.2686 278.952 96.2602C277.049 95.2518 276.38 92.4378 277.739 89.8738C279.097 87.3098 281.8 86.2818 283.704 87.2902C285.607 88.2986 286.276 91.1126 284.917 93.6766Z" fill="#89C8FF" stroke="#89C8FF"/>
<path d="M293.746 101.407C291.852 103.605 288.988 104.007 287.356 102.601C285.724 101.195 285.697 98.3027 287.591 96.1044C289.485 93.9061 292.349 93.5042 293.981 94.9102C295.613 96.3162 295.64 99.2083 293.746 101.407Z" fill="#89C8FF" stroke="#89C8FF"/>
<path d="M293.315 113.906C290.865 114.658 288.516 113.566 287.939 111.686C287.362 109.807 288.694 107.584 291.143 106.832C293.593 106.08 295.942 107.172 296.519 109.052C297.096 110.932 295.765 113.154 293.315 113.906Z" fill="#89C8FF" stroke="#89C8FF"/>
<path d="M273.691 95.0854C273.004 97.554 270.817 98.9436 268.923 98.4161C267.029 97.8885 265.876 95.5688 266.563 93.1002C267.251 90.6316 269.437 89.2421 271.331 89.7696C273.225 90.2971 274.379 92.6169 273.691 95.0854Z" fill="#89C8FF" stroke="#89C8FF"/>
</g>
<path fill-rule="evenodd" clip-rule="evenodd" d="M115.036 86.3563C114.514 84.5479 112.486 84.5479 111.964 86.3563L109.593 94.574L103.076 97.5631C101.641 98.2219 101.641 100.778 103.076 101.437L109.593 104.426L111.964 112.644C112.486 114.452 114.514 114.452 115.036 112.644L117.407 104.426L123.924 101.437C125.359 100.778 125.359 98.2219 123.924 97.5631L117.407 94.574L115.036 86.3563Z" fill="#FFBE18"/>
<path fill-rule="evenodd" clip-rule="evenodd" d="M95.6354 115.982C95.2492 114.673 93.7508 114.673 93.3646 115.982L91.6123 121.933L86.7951 124.097C85.735 124.574 85.735 126.426 86.7951 126.903L91.6123 129.067L93.3646 135.018C93.7508 136.327 95.2492 136.327 95.6354 135.018L97.3877 129.067L102.205 126.903C103.265 126.426 103.265 124.574 102.205 124.097L97.3877 121.933L95.6354 115.982Z" fill="#FFBE18"/>
<g clip-path="url(#clip0_315_2072)">
<path d="M210.069 122.487C230.931 120.625 232.053 97.0177 232.113 90.6343C232.15 86.8372 227.291 87.2394 224.862 87.6416C215.146 73.9656 204.862 67.5379 204.862 67.5379L203.259 65.5469C196.445 56.388 186.425 48.0255 181.615 49.6183C176.806 51.2112 178.008 61.1665 178.008 61.1665C178.008 61.1665 152.761 41.6541 143.943 48.4237C135.125 55.1933 148.352 89.4356 152.36 94.6124C151.959 97.0017 150.757 103.373 153.563 109.346C153.563 109.346 150.725 115.4 140.154 117.845C129.579 120.287 96.1943 144.687 107.202 168.169C111.502 177.34 117.575 184.58 130.125 185.787C139.437 186.592 157.251 183.374 162.109 182.569C165.348 182.167 170.206 182.167 174.255 182.167C178.304 182.167 184.972 186.044 195.198 185.916C205.425 185.787 223.243 178.547 223.648 160.446C224.053 142.346 210.287 129.474 210.287 129.474C210.287 129.474 210.668 122.741 210.073 122.487H210.069Z" fill="#FABC6F"/>
<path d="M123.355 176.946C123.121 176.978 122.898 177.043 122.683 177.142C120.482 178.158 107.832 184.49 116.356 192.223C125.426 200.451 138.722 193.795 138.283 186.009C138.26 185.597 138.109 185.209 137.87 184.872C136.464 182.896 130.927 175.926 123.355 176.946Z" fill="white"/>
<path d="M205.938 177.101C206.173 177.133 206.396 177.198 206.611 177.297C208.811 178.313 221.462 184.645 212.938 192.378C203.867 200.606 190.572 193.95 191.011 186.164C191.034 185.752 191.185 185.364 191.424 185.028C192.83 183.051 198.367 176.081 205.938 177.101Z" fill="white"/>
<path d="M153.558 109.347C153.558 109.347 175.87 102.927 189.635 106.145C203.401 109.363 217.166 96.8934 214.332 86.4353C211.498 75.9772 202.271 67.4482 197.413 65.437C201.562 66.1895 201.939 66.1895 202.693 66.5658C205.334 68.0708 217.571 79.9995 221.441 87.2317C221.911 88.1126 224.858 87.642 224.858 87.642C224.858 87.642 229.312 86.8375 230.526 87.642C232.178 88.7361 235.008 89.1464 232.162 102.07C229.316 114.994 221.19 122.339 210.069 122.488C210.069 122.488 212.255 126.253 211.271 130.476C204.202 121.124 178.176 113.924 149.263 113.924C150.773 112.581 152.708 110.939 153.563 109.347H153.558Z" fill="white"/>
<path d="M147.935 54.2565C147.935 54.2565 154.818 49.0274 162.915 58.6811C171.012 68.3347 171.012 73.1615 170.202 75.9772C169.392 78.7928 164.129 84.4241 158.056 84.0219C151.984 83.6196 142.672 59.8878 147.935 54.2565Z" fill="#FFC4C4"/>
<path d="M155.21 53.114C155.21 53.114 167.477 59.5377 168.267 70.7761C166.684 69.5734 163.915 66.255 161.74 67.7111C159.566 69.1672 163.522 75.1927 163.522 75.1927C163.522 75.1927 159.566 71.5806 157.983 73.1855C156.4 74.7904 159.963 82.0146 159.963 82.0146L161.149 84.424L166.291 82.819L172.226 78.0003C172.226 78.0003 171.04 66.3596 171.04 65.9573C171.04 65.5551 166.291 58.3551 166.291 58.3551C166.291 58.3551 159.17 53.114 159.17 52.7117C159.17 52.3095 155.214 51.4407 155.214 51.4407L154.817 52.7117L155.214 53.114H155.21Z" fill="#FABC6F"/>
<path d="M154.732 53.0415C154.732 53.0415 167.283 59.4773 168.093 70.7399C166.473 69.5331 163.639 66.2067 161.413 67.6708C159.186 69.1349 163.234 75.1644 163.234 75.1644C163.234 75.1644 159.186 71.5443 157.566 73.1533C155.947 74.7622 160.89 83.6194 160.89 83.6194" stroke="#111111" stroke-width="2" stroke-miterlimit="10" stroke-linecap="round"/>
<path d="M204.63 85.8825C205.261 85.6557 205.402 84.4558 204.946 83.2025C204.489 81.9492 203.608 81.1171 202.977 81.3439C202.346 81.5707 202.205 82.7706 202.662 84.0239C203.118 85.2772 204 86.1093 204.63 85.8825Z" fill="#111111"/>
<path d="M199.298 152.2C199.298 166.47 168.888 178.02 167.593 178.497C167.252 178.625 166.87 178.692 166.483 178.692C166.095 178.692 165.713 178.625 165.372 178.497C164.077 178.02 133.667 166.47 133.667 152.2C133.672 148.849 135.588 145.636 138.993 143.267C142.399 140.897 147.016 139.564 151.833 139.561C157.883 139.561 163.18 141.371 166.483 144.431C169.785 141.371 175.082 139.561 181.132 139.561C185.949 139.564 190.566 140.897 193.972 143.267C197.377 145.636 199.293 148.849 199.298 152.2Z" fill="white"/>
<path d="M160.797 137.36C160.797 137.36 158.773 142.992 162.822 144.198C163.631 142.992 164.036 141.785 164.036 141.785C164.036 141.785 164.441 144.601 165.656 145.405C166.87 146.21 168.49 147.014 168.49 149.025C168.49 149.83 169.016 149.83 169.765 149.025C170.514 148.221 173.32 145.606 173.133 143.494C172.943 142.589 173.348 142.187 173.753 142.992C174.158 143.796 175.372 145.405 175.777 142.589C176.182 139.774 175.372 137.763 175.372 137.763" fill="#FABC6F"/>
<path d="M160.797 137.36C160.797 137.36 158.773 142.992 162.822 144.198C163.631 142.992 164.036 141.785 164.036 141.785C164.036 141.785 164.441 144.601 165.656 145.405C166.87 146.21 168.49 147.014 168.49 149.025C168.49 149.83 169.016 149.83 169.765 149.025C170.514 148.221 173.32 145.606 173.133 143.494C172.943 142.589 173.348 142.187 173.753 142.992C174.158 143.796 175.372 145.405 175.777 142.589C176.182 139.774 175.372 137.763 175.372 137.763" stroke="#111111" stroke-width="2" stroke-miterlimit="10" stroke-linecap="round"/>
<path d="M227.85 87.0353C227.85 87.0353 232.541 86.6321 233.694 88.55C234.179 89.3599 234.266 92.0316 232.587 94.5526C230.227 98.0903 230.243 97.8975 228.257 97.9992C227.241 98.0518 223.665 95.6044 223.665 95.6044C223.665 95.6044 219.684 92.6768 220.02 90.5731C220.352 88.1187 225.789 87.2808 225.789 87.2808" fill="#111111"/>
<path d="M125.279 187.387C127.378 188.541 130.154 186.778 131.279 185.751C131.605 185.472 132.706 184.043 131.296 182.626C129.886 181.208 129.054 182.3 128.252 181.98C127.45 181.66 128.042 180.009 125.805 179.431C124.015 178.969 123.356 180.866 123.25 181.872C123.052 183.229 123.181 186.232 125.279 187.387Z" fill="#FFC4C4"/>
<ellipse cx="1.92731" cy="2.35552" rx="1.92731" ry="2.35552" transform="matrix(-0.92426 -0.384129 0.385011 -0.92193 126.636 193.939)" fill="#FFC4C4"/>
<ellipse cx="1.92728" cy="2.35555" rx="1.92728" ry="2.35555" transform="matrix(-0.815663 -0.57931 0.580671 -0.813581 121.76 191.491)" fill="#FFC4C4"/>
<ellipse cx="1.77437" cy="2.10722" rx="1.77437" ry="2.10722" transform="matrix(-0.380979 -0.923677 0.925905 -0.379969 119.169 186.079)" fill="#FFC4C4"/>
<ellipse cx="1.77442" cy="2.10718" rx="1.77442" ry="2.10718" transform="matrix(-0.985212 -0.178053 0.178415 -0.982763 131.761 192.004)" fill="#FFC4C4"/>
<path d="M204.003 187.627C206.07 186.419 205.968 183.136 205.659 181.646C205.585 181.224 204.916 179.548 202.975 180.031C201.034 180.514 201.549 181.787 200.864 182.31C200.179 182.834 199.058 181.481 197.418 183.103C196.106 184.401 197.403 185.937 198.216 186.543C199.284 187.408 201.937 188.835 204.003 187.627Z" fill="#FFC4C4"/>
<ellipse cx="1.92768" cy="2.3548" rx="1.92768" ry="2.3548" transform="matrix(-0.80296 0.595366 -0.597852 -0.802103 210.341 189.814)" fill="#FFC4C4"/>
<ellipse cx="1.9282" cy="2.35413" rx="1.9282" ry="2.35413" transform="matrix(-0.915259 0.402373 -0.404545 -0.914737 205.738 192.742)" fill="#FFC4C4"/>
<ellipse cx="1.77677" cy="2.10463" rx="1.77677" ry="2.10463" transform="matrix(-0.989655 -0.14601 0.145895 -0.988928 199.753 192.194)" fill="#FFC4C4"/>
<ellipse cx="1.77401" cy="2.10746" rx="1.77401" ry="2.10746" transform="matrix(-0.656914 0.753283 -0.755621 -0.655795 211.295 184.43)" fill="#FFC4C4"/>
</g>
<path d="M227.337 153.607C221.642 162.225 228.114 167.342 228.373 168.689C226.56 169.767 224.749 175.421 226.302 178.653C227.545 181.238 230.444 181.705 231.739 181.615C231.307 182.333 230.703 184.308 231.739 186.463C233.033 189.156 236.916 188.348 238.47 188.348C237.693 189.695 237.952 190.772 238.47 192.657C238.987 194.542 243.906 194.273 245.2 192.657C246.495 191.041 247.789 189.964 248.825 189.964C257.109 192.388 263.063 190.503 268.499 185.655C273.936 180.807 273.677 168.689 273.677 166.803C275.748 165.995 276.265 161.955 274.971 159.262C273.677 156.569 270.311 157.107 270.311 155.222C270.57 150.374 267.464 150.105 266.169 150.105C264.875 150.105 263.322 149.567 263.839 148.22C265.134 145.527 263.322 143.642 262.545 143.104C261.768 142.565 261.251 142.296 258.144 143.104C255.038 143.912 254.002 143.912 250.896 143.104C242.612 141.757 233.032 144.989 227.337 153.607Z" fill="#7BB90C"/>
<path d="M238.47 188.348C239.074 186.912 240.593 183.931 241.835 183.5" stroke="#4D8300" stroke-width="1.5" stroke-linecap="round"/>
<path d="M231.739 181.615C232.429 180.089 234.172 176.714 235.622 175.421" stroke="#4D8300" stroke-width="1.5" stroke-linecap="round"/>
<path d="M259.956 163.302C261.337 161.417 264.875 158.185 267.723 156.838" stroke="#4D8300" stroke-width="1.5" stroke-linecap="round"/>
<path d="M254.52 154.683C255.814 153.427 259.128 150.698 262.027 149.836" stroke="#4D8300" stroke-width="1.5" stroke-linecap="round"/>
<path d="M230.962 165.726C234.932 171.92 244.165 184.955 249.342 187.54C252.967 187.54 265.134 183.77 267.464 170.035" stroke="#4D8300" stroke-width="1.5" stroke-linecap="round"/>
<path d="M238.211 156.838C240.282 162.763 247.012 175.744 257.367 180.269" stroke="#4D8300" stroke-width="1.5" stroke-linecap="round"/>
<path d="M248.048 152.529C250.378 157.556 256.591 168.688 262.804 172.997" stroke="#4D8300" stroke-width="1.5" stroke-linecap="round"/>
<path d="M229.668 163.032C230.272 159.262 234.742 151.182 247.789 149.028" stroke="#4D8300" stroke-width="1.5" stroke-linecap="round"/>
<circle cx="213.178" cy="18.4564" r="10.4564" fill="white"/>
<circle cx="272.544" cy="35.3216" r="10.4564" fill="white"/>
<circle cx="208.456" cy="31.274" r="10.4564" fill="white"/>
<circle cx="267.822" cy="48.139" r="10.4564" fill="white"/>
<rect x="217.611" y="18.6917" width="51.9447" height="14.1667" transform="rotate(16.7893 217.611 18.6917)" fill="white"/>
<path d="M202.974 21.5015C204.395 20.7909 208.539 19.6381 212.212 22.212" stroke="#E9E9E9" stroke-width="2" stroke-linecap="round"/>
<defs>
<clipPath id="clip0_315_2072">
<rect width="129" height="149" fill="white" transform="translate(105 47)"/>
</clipPath>
</defs>
</svg>
