<svg width="338" height="223" viewBox="0 0 338 223" fill="none" xmlns="http://www.w3.org/2000/svg">
<g opacity="0.2">
<path d="M53.2042 65.8731C39.6557 72.0657 38.2726 92.097 39.2747 101.339C39.4741 103.949 42.5959 114.52 54.9237 112.664C67.2515 110.808 64.8386 102.779 69.4063 99.976C73.9741 97.1726 80.0893 106.029 91.2507 97.0768C100.18 89.9153 93.0799 79.8426 88.4137 75.7013C82.3224 69.845 66.7527 59.6806 53.2042 65.8731Z" fill="#89C8FF" stroke="#89C8FF" stroke-width="2" stroke-linecap="round"/>
<path d="M43.0159 49.2908C47.0982 55.9165 45.832 63.8155 40.4538 67.012C35.0756 70.2086 27.3637 67.6459 23.2814 61.0202C19.1991 54.3945 20.4653 46.4955 25.8435 43.2989C31.2217 40.1024 38.9337 42.6651 43.0159 49.2908Z" fill="#89C8FF" stroke="#89C8FF"/>
<path d="M72.5098 40.0769C74.9812 47.4303 71.959 54.8676 65.9938 56.8196C60.0286 58.7716 53.1015 54.5899 50.6301 47.2365C48.1588 39.8831 51.1809 32.4457 57.1461 30.4938C63.1113 28.5418 70.0385 32.7235 72.5098 40.0769Z" fill="#89C8FF" stroke="#89C8FF"/>
<path d="M100.139 57.9562C98.4333 64.6659 92.428 68.8606 86.8373 67.5264C81.2466 66.1922 77.9397 59.7752 79.6459 53.0656C81.3521 46.3559 87.3573 42.1612 92.948 43.4954C98.5388 44.8296 101.846 51.2466 100.139 57.9562Z" fill="#89C8FF" stroke="#89C8FF"/>
<path d="M30.8278 75.8992C35.674 80.8962 36.0101 88.0906 31.8255 91.9846C27.6408 95.8786 20.3231 95.1809 15.477 90.1838C10.6309 85.1868 10.2947 77.9924 14.4794 74.0984C18.664 70.2044 25.9817 70.9021 30.8278 75.8992Z" fill="#89C8FF" stroke="#89C8FF"/>
<path d="M281.667 122.471C276.98 119.289 270.06 122.845 267.185 125.021C266.357 125.609 263.452 128.743 266.461 132.394C269.47 136.045 271.669 133.651 273.486 134.581C275.304 135.511 273.55 139.278 278.689 141.129C282.8 142.61 284.767 138.278 285.237 135.926C285.999 132.767 286.353 125.653 281.667 122.471Z" fill="#89C8FF" stroke="#89C8FF" stroke-width="2" stroke-linecap="round"/>
<path d="M284.917 115.677C283.559 118.241 280.856 119.269 278.952 118.26C277.049 117.252 276.38 114.438 277.739 111.874C279.097 109.31 281.8 108.282 283.704 109.29C285.607 110.299 286.276 113.113 284.917 115.677Z" fill="#89C8FF" stroke="#89C8FF"/>
<path d="M293.746 123.407C291.852 125.605 288.988 126.007 287.356 124.601C285.724 123.195 285.697 120.303 287.591 118.104C289.485 115.906 292.349 115.504 293.981 116.91C295.613 118.316 295.64 121.208 293.746 123.407Z" fill="#89C8FF" stroke="#89C8FF"/>
<path d="M293.315 135.906C290.865 136.658 288.516 135.566 287.939 133.686C287.362 131.807 288.694 129.584 291.143 128.832C293.593 128.08 295.942 129.172 296.519 131.052C297.096 132.932 295.765 135.154 293.315 135.906Z" fill="#89C8FF" stroke="#89C8FF"/>
<path d="M273.691 117.085C273.004 119.554 270.817 120.944 268.923 120.416C267.029 119.889 265.876 117.569 266.563 115.1C267.251 112.632 269.437 111.242 271.331 111.77C273.225 112.297 274.379 114.617 273.691 117.085Z" fill="#89C8FF" stroke="#89C8FF"/>
</g>
<path d="M6.05078 203V154.922H37.7266V163.156H16.0117V174.844H35.668V183.078H16.0117V203H6.05078ZM39.8702 192.906C39.9034 184.871 46.3448 182.248 53.2842 181.816C55.8741 181.65 60.7217 181.418 62.2491 181.352V178.43C62.2159 175.408 60.1573 173.682 56.4717 173.648C53.1182 173.682 51.0264 175.176 50.4952 177.633H41.1319C41.7295 171.391 47.1748 166.477 56.7373 166.477C64.6065 166.477 72.044 169.996 72.0108 178.695V203H62.7139V198.02H62.4483C60.6885 201.34 57.2354 203.697 51.8897 203.664C44.9834 203.697 39.9034 200.045 39.8702 192.906ZM49.2998 192.641C49.2998 195.396 51.5245 196.857 54.6787 196.891C59.1612 196.857 62.2823 193.936 62.2491 190.117V187.494C60.7549 187.561 56.5381 187.793 54.878 187.926C51.458 188.225 49.2998 189.852 49.2998 192.641ZM77.4747 203V166.941H86.838V173.25H87.2364C88.7637 169.033 92.4161 166.477 97.2637 166.477C102.211 166.477 105.897 169.1 107.092 173.25H107.424C108.918 169.166 113.035 166.477 118.315 166.477C124.988 166.477 129.67 170.893 129.67 178.762V203H119.842V180.688C119.875 176.57 117.418 174.578 114.197 174.578C110.512 174.578 108.32 177.135 108.354 180.953V203H98.7911V180.422C98.8243 176.869 96.5665 174.578 93.213 174.578C89.8595 174.578 87.2696 177.268 87.3028 181.352V203H77.4747ZM135.2 203V166.941H145.028V203H135.2ZM134.735 157.246C134.735 154.457 137.159 152.232 140.114 152.199C143.036 152.232 145.46 154.457 145.427 157.246C145.46 159.969 143.036 162.227 140.114 162.227C137.159 162.227 134.735 159.969 134.735 157.246ZM160.453 154.922V203H150.625V154.922H160.453ZM171.827 216.547C169.902 216.514 168.109 216.48 166.847 216.348V208.711C168.109 208.811 169.603 208.844 170.831 208.844C172.79 208.844 174.351 208.645 175.546 205.523L176.144 203.996L163.195 166.941H173.488L181.058 193.504H181.456L189.093 166.941H199.519L185.441 206.984C183.382 212.795 179.431 216.514 171.827 216.547ZM233.025 203H216.091V154.922H233.224C247.7 154.922 256.566 163.92 256.533 178.895C256.566 193.936 247.7 203 233.025 203ZM226.052 194.434H232.626C241.79 194.434 246.572 189.686 246.572 178.895C246.572 168.203 241.79 163.488 232.693 163.488H226.052V194.434ZM277.735 203.73C266.844 203.697 260.037 196.227 260.071 185.07C260.037 173.947 266.844 166.477 277.735 166.477C288.659 166.477 295.432 173.947 295.465 185.07C295.432 196.227 288.659 203.697 277.735 203.73ZM270.032 185.07C270.032 191.379 272.655 196.061 277.801 196.094C282.815 196.061 285.471 191.379 285.438 185.07C285.471 178.729 282.815 173.98 277.801 173.98C272.655 173.98 270.032 178.729 270.032 185.07ZM315.804 217.277C305.843 217.277 299.701 212.795 299.136 205.988H308.831C309.363 208.877 312.085 210.172 316.003 210.172C320.552 210.172 323.607 208.213 323.64 203.199V196.625H323.175C321.88 199.547 318.693 202.502 312.882 202.469C304.747 202.502 298.206 196.758 298.206 184.738C298.206 172.553 304.913 166.477 312.882 166.477C318.925 166.477 321.847 170.062 323.175 172.984H323.574V166.941H333.335V203.398C333.302 212.596 326.064 217.277 315.804 217.277ZM308.3 184.871C308.267 191.113 310.956 195.064 315.937 195.098C320.851 195.064 323.64 191.279 323.64 184.871C323.64 178.463 320.884 174.312 315.937 174.312C310.923 174.312 308.267 178.662 308.3 184.871Z" fill="white"/>
<g clip-path="url(#clip0_316_2075)">
<path d="M130.787 40.4763C130.787 40.4763 129.271 38.3538 124.724 37.141C120.177 35.9282 115.326 34.7154 115.326 34.7154C115.326 34.7154 113.507 34.4121 111.082 31.0769C108.354 27.4384 102.897 21.9806 102.897 21.9806C102.897 21.9806 100.472 20.4646 98.0466 22.5871C95.6214 24.7095 92.2867 29.2576 92.5899 33.1993C92.893 37.141 95.0151 48.6629 93.8025 51.695C92.5899 54.7271 91.156 57.1527 86.7178 57.3043C82.2797 57.4559 79.2512 56.8495 80.1607 60.1848C81.0701 63.5201 80.4638 65.6425 83.4953 67.4618C86.5268 69.281 102.897 71.4035 104.11 78.074C105.322 84.7446 108.051 94.4472 104.413 104.15C100.775 113.853 99.5623 125.981 100.472 128.406C100.775 126.284 102.169 124.01 102.169 124.01C102.169 124.01 101.988 139.625 104.11 147.509C106.232 155.392 98.956 192.687 94.4088 201.48C91.6804 201.48 84.4048 201.783 83.7985 208.453C83.7985 211.485 83.4953 213.001 87.7394 213.608C90.1646 213.911 90.9316 213.608 90.9316 213.608C90.9316 213.608 89.8615 215.427 91.6804 215.73C93.4993 216.033 101.988 216.337 106.232 215.124C110.476 213.911 109.566 209.06 111.385 206.937C113.204 204.815 116.999 200.003 116.999 200.003C116.999 200.003 117.499 206.503 130.787 204.169C131.696 205.724 130.787 207.544 134.425 209.363C138.062 211.182 140.488 211.182 148.976 210.879C157.464 210.576 193.539 204.815 198.086 204.815C202.634 204.815 210.212 204.815 209.303 186.319C208.393 167.823 191.72 137.2 167.771 119.31C143.822 101.421 144.689 72.7164 144.689 72.7164C144.689 72.7164 154.433 72.6163 162.011 62.9137C164.437 59.2752 163.527 55.6367 156.252 55.3335C148.976 55.0303 143.822 52.9078 143.822 52.9078C143.822 52.9078 145.856 50.2972 144.689 45.84C144.125 45.0244 143.216 45.6308 140.488 46.2372C137.759 46.8437 136.547 46.8437 136.547 46.8437L130.787 40.4763Z" fill="white"/>
<path d="M161.498 170.001C154.831 170.168 145.698 172.701 144.498 181.501C143.298 190.301 154.333 197.835 159.499 198.501C157.167 199.835 149.47 202.837 141.498 203.501C135.498 204.001 133.498 200.671 128.503 204.001C126.103 205.601 125.002 210.001 128.502 210.501" stroke="#111111" stroke-linecap="round"/>
<path d="M85.4972 213.001C85.1639 212.168 84.7972 210.201 85.9972 209.001" stroke="#111111" stroke-linecap="round"/>
<path d="M96.3254 215.001C95.992 214.168 95.6254 212.201 96.8254 211.001" stroke="#111111" stroke-linecap="round"/>
<path d="M128.325 210.001C127.992 209.168 127.625 207.201 128.825 206.001" stroke="#111111" stroke-linecap="round"/>
<path d="M119.325 203.001C118.992 202.168 118.625 200.201 119.825 199.001" stroke="#111111" stroke-linecap="round"/>
<path d="M101.325 215.001C100.992 214.168 100.625 212.201 101.825 211.001" stroke="#111111" stroke-linecap="round"/>
<path d="M133.325 211.001C132.992 210.168 132.625 208.201 133.825 207.001" stroke="#111111" stroke-linecap="round"/>
<path d="M124.325 204.001C123.992 203.168 123.625 201.201 124.825 200.001" stroke="#111111" stroke-linecap="round"/>
<path d="M201.479 189.469C201.479 189.469 216.642 189.469 221.699 177.672C218.328 184.412 225.937 186.098 230.557 177.672C235.177 169.245 236.863 164.191 236.863 164.191L238.548 172.617C238.548 172.617 248.658 165.877 245.287 143.967C246.973 149.021 250.341 152.393 250.341 152.393C250.341 152.393 253.712 143.967 241.916 132.169C248.655 135.541 253.712 140.595 253.712 140.595C253.712 140.595 257.083 128.798 243.602 113.631C248.655 117.003 260.451 122.057 265.507 130.483C263.822 123.743 263.822 122.057 263.822 122.057C263.822 122.057 275.617 133.855 277.3 143.967C278.985 154.079 278.985 138.913 278.985 138.913C278.985 138.913 285.724 147.339 280.671 167.563L285.724 160.822C285.724 160.822 289.095 179.36 272.246 187.787C278.985 189.472 280.671 189.472 282.356 186.101C278.985 191.155 270.561 214.751 228.438 209.693C186.315 204.639 201.479 189.469 201.479 189.469Z" fill="#111111"/>
<path d="M130.735 55.7094C132 61.6977 129.214 71.0971 133.182 79.5869C137.15 88.0768 128.059 94.1409 128.059 94.1409C128.059 94.1409 121.692 95.0505 119.57 101.418C117.448 107.785 108.051 114.456 117.751 142.957C123.814 152.054 131.696 170.549 129.877 172.065C134.122 170.549 143.128 152.181 144.689 141.808C148.673 146.293 173.002 165.002 175.502 183.002C177.446 197.002 162.315 209.593 164.437 209.172C166.559 208.75 200.518 204.727 200.518 204.727C200.518 204.727 219.183 206.106 205.756 170.437C192.33 134.768 162.027 111.002 162.027 111.002C162.027 111.002 147.982 97.6702 144.689 72.7072C145.338 72.6071 155.585 72.7496 162.587 61.916C165.043 57.753 162.536 55.7942 157.422 55.4092C152.308 55.0241 145.641 53.8113 143.822 52.9016C144.732 51.3856 145.857 48.4718 144.689 45.8339C144.429 45.3215 144.911 45.0698 141.033 46.1037C137.156 47.1377 136.55 46.5343 136.55 46.5343C136.55 46.5343 130.647 40.0851 129.811 39.5181C129.811 39.5181 132.912 47.4439 131.093 49.2632C130.184 50.1728 130.738 55.7063 130.738 55.7063L130.735 55.7094Z" fill="#111111"/>
<path d="M95.9246 29.2577C95.9246 29.2577 93.4994 29.5609 93.1962 31.9865C92.8931 34.4122 94.1148 40.4036 94.2633 41.3496C94.4118 42.2956 94.6028 50.7824 93.5964 52.9048C92.5899 55.0273 88.3064 58.1382 88.3064 58.1382C88.3064 58.1382 80.7882 58.214 80.7792 58.1382C80.7701 58.0624 80.1001 59.2813 80.1001 59.2813C80.1001 59.2813 80.1638 63.8233 82.8921 64.733C85.6205 65.6426 89.2704 66.4946 92.599 64.2509C95.9276 62.0071 97.5585 60.9065 99.4714 59.9392C101.384 58.972 103.255 55.3002 103.255 55.3002L101.381 44.9092L103.499 47.5046C103.499 47.5046 100.172 36.5316 99.8686 34.7124C99.5654 32.8931 98.0648 29.2546 96.0852 29.2546" fill="#BAB9B7"/>
<path d="M93.9997 39.3544C93.9997 39.3544 95.9672 51.6374 92.9144 53.6355C89.8617 55.6336 89.5586 56.7252 87.4365 56.7858C85.3144 56.8465 80.4337 56.3492 80.1457 58.4171C79.8577 60.485 80.7672 61.0914 82.5861 62.001C84.405 62.9106 86.8302 64.1235 90.468 63.8203C94.1058 63.517 93.7754 61.625 96.6674 60.7518C99.5595 59.8786 104.5 59.1555 104.5 54.001C104.5 48.8464 102.803 45.2579 101.184 43.0172C99.5656 40.7765 96.8342 33.4995 96.8342 33.4995L94.7121 33.1963L94.1058 34.4091L93.9967 39.3544H93.9997Z" fill="#111111"/>
<path d="M87.4365 59.8817C87.4365 59.8817 88.9523 58.0625 89.5586 57.7593C90.1649 57.4561 91.3775 57.4561 92.8932 57.4561C94.409 57.4561 100.472 55.94 101.685 55.3336C102.897 54.7272 103.673 53.6387 103.673 53.6387C103.673 53.6387 104.11 55.6368 100.775 57.4561C97.4405 59.2753 95.9247 60.1849 87.4365 59.8817Z" fill="#4B1016"/>
<path d="M82.3435 58.1382C82.3435 58.1382 82.586 55.6367 84.1018 55.6367C84.7081 55.6367 83.7986 58.972 84.4049 59.5784C83.4955 59.2752 82.7073 58.8204 82.3435 58.1382Z" fill="white"/>
<path d="M93.851 33.1599C93.851 33.1599 93.0476 34.6335 94.0298 39.5242C95.012 44.415 95.6214 48.6629 94.4088 51.695C93.1962 54.7271 89.2552 57.7591 89.2552 57.7591C89.2552 57.7591 87.2665 59.2206 88.4124 59.8543C89.5583 60.488 92.987 58.4201 92.987 58.4201L97.1371 53.5142L96.5308 36.2314L93.851 33.1599Z" fill="#4B1016"/>
<path d="M95.6214 31.6833C95.6214 31.6833 92.893 32.8962 93.4993 35.3218C94.1056 37.7475 96.2277 42.5988 95.3182 49.2694C94.4088 55.94 89.5583 57.7592 89.5583 57.7592C89.5583 57.7592 95.9245 59.2752 101.381 56.2432C102.897 55.3335 104.413 55.0303 103.503 49.5726C102.594 44.1149 100.472 42.902 99.2592 38.3539C98.0466 33.8058 97.1371 31.6833 95.6214 31.6833Z" fill="#FFC3C3"/>
<path d="M89.6645 59.8512C89.6645 59.8512 90.9226 57.6772 89.6918 56.7918C89.1976 56.4401 87.9972 59.6814 87.1514 59.8208C88.0669 60.1028 88.9733 60.1938 89.6675 59.8512H89.6645Z" fill="white"/>
<path d="M101.678 20.1221C101.678 20.1221 100.429 19.2306 99.0743 19.0184C97.0402 18.7 97.7586 22.9813 97.7586 22.9813C97.7586 22.9813 97.6525 23.6605 100.363 24.085C103.076 24.5095 103.152 22.0899 103.152 22.0899C103.152 22.0899 103.5 21.7958 101.678 20.1221Z" fill="#111111"/>
<path d="M90.9993 213.501C91.1659 211.501 92.5993 207.301 96.9993 206.501C98.5993 206.101 102.666 195.668 104.499 190.501" stroke="#111111" stroke-linecap="round"/>
<path d="M100.499 54.0012C102.099 52.0012 101.166 44.6679 100.499 41.5012C102.499 44.5012 104.499 51.0012 103.499 54.5012C101.999 57.0012 97.4993 58.0012 95.4993 58.0012C96.4993 57.5012 98.8993 56.0012 100.499 54.0012Z" fill="#E8ABAB"/>
<path d="M114.852 42.4653C115.481 42.9975 116.755 42.5762 117.698 41.5243C118.64 40.4724 118.893 39.1882 118.264 38.656C117.634 38.1238 116.36 38.5451 115.418 39.597C114.476 40.6489 114.222 41.9331 114.852 42.4653Z" fill="#111111"/>
<g clip-path="url(#clip1_316_2075)">
<path d="M125.001 185.503C125.001 185.503 117.757 195.71 118.032 196.9C119.038 195.461 120.954 195.235 122.224 195.281C123.494 195.326 128.489 197.275 128.489 197.275C128.489 197.275 134.206 198.07 139.032 196.473C133.994 195.113 128.992 189.48 125.001 185.503Z" fill="#F2F2F2"/>
</g>
<path d="M94.5 201.5C97.1667 194.5 102.7 177.6 103.5 166" stroke="#111111" stroke-linecap="round"/>
<path d="M144.5 66.9999C144.5 64.9999 142.833 59.1666 142 56.4999C141.636 55.2999 143.515 55.6666 144.5 55.9999C148.667 56.4999 157.4 57.6999 159 58.4999C161 59.4999 158.5 61.9999 152 66.4999C145.5 70.9999 144.5 67.9999 144.5 66.9999Z" fill="#FFC3C3"/>
</g>
<path d="M248.488 4.00024C255.579 4.00155 262.536 5.92753 268.617 9.57273C274.699 13.2179 279.677 18.4456 283.02 24.6982C286.364 30.9507 287.947 37.9936 287.601 45.0755C287.256 52.1574 284.994 59.0127 281.058 64.9101C277.122 70.8074 271.659 75.5257 265.251 78.5617C258.844 81.5975 251.733 82.8372 244.676 82.1483C237.619 81.4594 230.882 78.8678 225.182 74.65C219.483 70.4322 215.035 64.7464 212.314 58.1991C210.979 54.9874 214.178 51.7601 217.398 53.0682C222.916 55.3034 229.043 55.534 234.713 53.7201C240.383 51.9061 245.239 48.1623 248.435 43.1396C251.631 38.1168 252.965 32.1328 252.207 26.2279C251.448 20.3231 248.644 14.8708 244.282 10.8192L243.98 10.5058C241.822 8.03833 243.538 4.03158 246.949 4.03158H247.991L248.257 4.00808L248.488 4.00024Z" fill="#FFD850"/>
<path d="M299.257 81.7674C299.826 80.978 301.07 81.4645 301.038 82.464L300.873 87.6652C300.859 88.1106 301.129 88.5242 301.538 88.6844L306.177 90.4984C307.065 90.8458 307.064 92.1415 306.175 92.4193L301.311 93.9396C300.923 94.0608 300.658 94.4199 300.644 94.8413L300.473 100.224C300.441 101.212 299.197 101.527 298.668 100.681L295.993 96.4026C295.746 96.0078 295.279 95.8248 294.855 95.9573L290.261 97.393C289.353 97.6768 288.584 96.5746 289.146 95.7947L292.211 91.543C292.451 91.2102 292.46 90.751 292.234 90.39L289.402 85.8594C288.885 85.0317 289.653 84.0364 290.542 84.3838L295.18 86.1978C295.59 86.358 296.043 86.2271 296.296 85.8753L299.257 81.7674Z" fill="#FFD850"/>
<path d="M210.071 5.79988C210.17 4.83627 211.445 4.56277 211.931 5.40075L214.128 9.18854C214.345 9.5633 214.779 9.75548 215.202 9.66458L219.484 8.74575C220.431 8.54248 221.085 9.66998 220.438 10.3912L217.514 13.651C217.225 13.9735 217.177 14.4456 217.394 14.8203L219.591 18.6081C220.077 19.4461 219.207 20.4164 218.321 20.0242L214.317 18.2511C213.921 18.0756 213.457 18.1752 213.168 18.4977L210.244 21.7575C209.597 22.4787 208.406 21.9509 208.505 20.9873L208.954 16.6316C208.999 16.2007 208.76 15.7902 208.364 15.6147L204.361 13.8416C203.475 13.4493 203.609 12.1528 204.556 11.9495L208.837 11.0307C209.261 10.9398 209.577 10.5865 209.622 10.1555L210.071 5.79988Z" fill="#FFD850"/>
<path d="M205.837 24.6218C206.354 23.8027 207.617 24.1241 207.68 25.0908L207.788 26.7505C207.816 27.1828 208.12 27.5478 208.54 27.6546L210.151 28.0646C211.09 28.3035 211.175 29.6041 210.275 29.9627L208.73 30.5784C208.328 30.7388 208.074 31.1401 208.102 31.5724L208.21 33.2321C208.273 34.1988 207.063 34.6813 206.444 33.9363L205.38 32.6571C205.104 32.3239 204.644 32.2069 204.241 32.3673L202.696 32.983C201.796 33.3416 200.963 32.3391 201.48 31.5201L202.369 30.1138C202.6 29.7475 202.569 29.2739 202.292 28.9407L201.229 27.6615C200.61 26.9165 201.306 25.8144 202.245 26.0532L203.857 26.4633C204.276 26.5701 204.717 26.3944 204.949 26.0281L205.837 24.6218Z" fill="#FFD850"/>
<defs>
<clipPath id="clip0_316_2075">
<rect width="206" height="197" fill="white" transform="translate(80 19)"/>
</clipPath>
<clipPath id="clip1_316_2075">
<rect width="21" height="11" fill="white" transform="translate(118.394 186) rotate(2.05393)"/>
</clipPath>
</defs>
</svg>
