<svg width="311" height="214" viewBox="0 0 311 214" fill="none" xmlns="http://www.w3.org/2000/svg">
<g clip-path="url(#clip0_7_8678)">
<rect x="0.5" width="310" height="214" rx="16" fill="#DCEEFF"/>
<path d="M170.466 182.954C169.208 174.36 174.833 164.875 177.802 161.207C196.231 161.294 234.555 161.469 240.424 161.469C247.761 171.687 247.499 179.548 247.499 182.168C247.499 184.264 246.451 185.138 245.927 185.312C241.211 186.71 226.852 189.505 207.148 189.505C182.518 189.505 173.61 185.836 172.3 185.312C170.99 184.788 170.728 184.526 170.466 182.954Z" fill="#DA3529"/>
<ellipse cx="209.064" cy="161.73" rx="31.4422" ry="4.71633" fill="#F04033"/>
<ellipse cx="209.064" cy="161.468" rx="29.3461" ry="3.40624" fill="#B42A20"/>
<ellipse cx="175.358" cy="146.357" rx="7.48046" ry="7.35744" fill="#E9E9E9"/>
<ellipse cx="219" cy="159" rx="7.5" ry="8" fill="#E9E9E9"/>
<ellipse cx="173" cy="156" rx="8.5" ry="8" fill="#E9E9E9"/>
<ellipse cx="214.45" cy="168.243" rx="7.48046" ry="7.35744" fill="#E9E9E9"/>
<rect width="37.1104" height="10.0275" transform="matrix(0.958679 0.28449 -0.29327 0.95603 178.53 147.523)" fill="#E9E9E9"/>
<circle cx="176.18" cy="146.357" r="7.35744" fill="white"/>
<circle cx="217.951" cy="158.224" r="7.35744" fill="white"/>
<circle cx="172.857" cy="155.376" r="7.35744" fill="white"/>
<circle cx="214.629" cy="167.243" r="7.35744" fill="white"/>
<rect x="179.299" y="146.523" width="36.5499" height="9.96815" transform="rotate(16.7893 179.299 146.523)" fill="white"/>
<path d="M169 148.5C170 148 172.915 147.189 175.5 149" stroke="#E9E9E9" stroke-linecap="round"/>
<path d="M228.191 164.089C218.759 164.875 203.824 164.875 195.439 164.512V170.019C198.317 172.667 204.186 178.07 204.632 178.494C205.077 178.918 216.703 179.024 222.46 179.024C225.896 173.815 233.901 163.613 228.191 164.089Z" fill="#F04033"/>
<path d="M231.073 165.137C221.641 166.709 204.163 166.709 195.115 165.95L193.867 171.18C197.091 173.796 203.664 179.131 204.163 179.549C204.663 179.967 217.684 180.072 224.133 180.072C227.981 174.929 237.379 164.086 231.073 165.137Z" fill="#DA3529"/>
<path d="M170.809 182.168C174.204 184.019 186.268 187.656 207.366 187.395C228.465 187.134 242.792 183.801 247.318 182.168" stroke="#B42A20" stroke-linecap="round"/>
<g clip-path="url(#clip1_7_8678)">
<path d="M177.81 47.9845C177.41 48.4794 176.829 48.7951 176.196 48.8622C175.563 48.9292 174.93 48.742 174.435 48.3418C173.94 47.9416 173.624 47.3612 173.557 46.7283C173.49 46.0954 173.677 45.4617 174.078 44.9668C174.478 44.4718 175.058 44.1561 175.691 44.0891C176.324 44.0221 176.958 44.2093 177.453 44.6094C177.948 45.0096 178.263 45.59 178.33 46.223C178.397 46.8559 178.21 47.4895 177.81 47.9845Z" fill="#FFBE18"/>
<path fill-rule="evenodd" clip-rule="evenodd" d="M184.553 35.7716C183.928 35.2662 183.241 35.019 182.647 34.9803C182.075 34.9436 181.653 35.0975 181.391 35.3137C181.035 35.5968 180.582 35.7289 180.129 35.6815C179.676 35.6342 179.26 35.4114 178.969 35.0607C178.679 34.7101 178.538 34.2596 178.576 33.8059C178.614 33.3523 178.828 32.9316 179.173 32.6341C180.234 31.7547 181.579 31.4237 182.875 31.5075C184.224 31.595 185.588 32.1332 186.741 33.0656C189.127 34.9947 190.311 38.5903 188.239 41.1526C187.039 42.6362 185.187 43.1232 183.48 42.8996C183.022 42.8395 182.607 42.6 182.326 42.2339C182.045 41.8677 181.921 41.405 181.981 40.9474C182.041 40.4898 182.281 40.0749 182.647 39.7939C183.013 39.5128 183.476 39.3888 183.933 39.4489C184.728 39.5533 185.263 39.2988 185.533 38.9647C185.966 38.4291 186.04 36.9734 184.553 35.7716Z" fill="#FFBE18"/>
<path fill-rule="evenodd" clip-rule="evenodd" d="M181.637 39.3781C182.384 39.9816 182.502 41.0767 181.896 41.825L180.763 43.2265C180.473 43.5854 180.052 43.8142 179.594 43.8628C179.135 43.9114 178.675 43.7757 178.316 43.4856C177.958 43.1955 177.729 42.7747 177.68 42.3158C177.632 41.8569 177.767 41.3975 178.057 41.0387L179.191 39.6372C179.794 38.8907 180.89 38.7738 181.637 39.3781Z" fill="#FFBE18"/>
<path fill-rule="evenodd" clip-rule="evenodd" d="M185.431 41.4208C185.399 41.6472 185.323 41.8651 185.207 42.062C185.091 42.259 184.937 42.4311 184.754 42.5685C184.571 42.7059 184.363 42.806 184.142 42.8629C183.92 42.9199 183.69 42.9326 183.463 42.9004L180.301 42.4528C179.844 42.3883 179.432 42.1449 179.154 41.7762C178.877 41.4074 178.757 40.9436 178.822 40.4867C178.886 40.0297 179.129 39.6172 179.498 39.3397C179.867 39.0623 180.331 38.9427 180.788 39.0072L183.952 39.4546C184.178 39.4866 184.396 39.5629 184.593 39.6791C184.789 39.7953 184.961 39.9492 185.099 40.1318C185.236 40.3145 185.336 40.5224 185.393 40.7438C185.45 40.9651 185.463 41.1945 185.431 41.4208Z" fill="#FFBE18"/>
</g>
<path d="M169.63 32.6162C169.457 33.4925 168.943 34.2642 168.201 34.7615C167.459 35.2588 166.55 35.441 165.673 35.2679C164.797 35.0949 164.025 34.5808 163.528 33.8387C163.031 33.0967 162.848 32.1875 163.022 31.3111C163.195 30.4348 163.709 29.6631 164.451 29.1658C165.193 28.6685 166.102 28.4863 166.978 28.6594C167.855 28.8324 168.626 29.3465 169.124 30.0886C169.621 30.8306 169.803 31.7398 169.63 32.6162Z" fill="#FFBE18"/>
<path fill-rule="evenodd" clip-rule="evenodd" d="M170.013 13.0404C168.906 12.8218 167.891 12.9647 167.128 13.305C166.394 13.6338 165.97 14.1012 165.788 14.5405C165.53 15.1253 165.054 15.5858 164.46 15.8233C163.867 16.0608 163.205 16.0563 162.615 15.8109C162.025 15.5655 161.555 15.0986 161.305 14.5105C161.055 13.9223 161.046 13.2598 161.279 12.665C162.022 10.8787 163.475 9.58812 165.139 8.84395C166.871 8.07022 168.917 7.84596 170.959 8.24922C175.184 9.08348 179.006 12.7736 178.11 17.3103C177.591 19.9373 175.61 21.7536 173.343 22.5933C172.736 22.818 172.064 22.7921 171.475 22.5214C170.887 22.2507 170.43 21.7573 170.205 21.1498C169.981 20.5422 170.007 19.8703 170.277 19.2819C170.548 18.6934 171.041 18.2366 171.649 18.012C172.705 17.6214 173.202 16.9556 173.318 16.3642C173.506 15.4159 172.645 13.5602 170.013 13.0404Z" fill="#FFBE18"/>
<path fill-rule="evenodd" clip-rule="evenodd" d="M168.752 19.426C170.074 19.687 170.936 20.9696 170.675 22.2947L170.185 24.7762C170.059 25.4115 169.686 25.971 169.148 26.3316C168.61 26.6921 167.951 26.8242 167.316 26.6987C166.68 26.5732 166.121 26.2005 165.76 25.6625C165.4 25.1245 165.268 24.4654 165.393 23.83L165.883 21.3485C166.144 20.0268 167.429 19.1646 168.752 19.426Z" fill="#FFBE18"/>
<path fill-rule="evenodd" clip-rule="evenodd" d="M174.799 19.4803C174.908 19.7823 174.955 20.1027 174.94 20.4233C174.925 20.7438 174.846 21.0582 174.709 21.3484C174.572 21.6386 174.379 21.8989 174.142 22.1145C173.904 22.3301 173.626 22.4968 173.324 22.6049L169.104 24.1182C168.495 24.337 167.823 24.3047 167.237 24.0284C166.652 23.752 166.2 23.2544 165.981 22.6448C165.762 22.0353 165.794 21.3638 166.071 20.778C166.347 20.1923 166.845 19.7403 167.454 19.5215L171.676 18.0069C171.978 17.8986 172.298 17.8509 172.618 17.8665C172.939 17.882 173.253 17.9605 173.543 18.0975C173.833 18.2345 174.093 18.4272 174.309 18.6648C174.524 18.9023 174.691 19.1783 174.799 19.4803Z" fill="#FFBE18"/>
<g clip-path="url(#clip2_7_8678)">
<path d="M116.87 26.0174C116.87 26.0174 101.467 25.0197 93.7658 37.7398C86.0644 50.4599 88.0518 62.1823 85.8159 67.9188C83.58 73.6553 73.3943 106.328 60.9727 121.293C48.551 136.258 37.3715 151.223 44.0792 169.929C50.7869 188.635 71.6553 194.621 91.033 194.87C110.411 195.12 120.348 195.618 120.348 189.633H127.056C127.056 189.633 127.801 193.873 138.484 193.374C147.427 193.124 148.918 191.628 148.918 189.383C148.918 187.138 147.924 186.889 147.924 186.889C147.924 186.889 152.148 187.388 154.88 186.39C156.122 185.891 156.868 185.143 157.116 183.896C157.365 182.649 158.11 177.162 148.669 174.668C148.669 174.668 129.292 136.507 131.031 85.6272C131.031 82.3848 132.273 77.8953 132.273 77.8953C132.273 77.8953 161.34 82.8836 167.55 52.954C169.538 41.7304 164.569 40.7328 159.849 40.7328C155.129 40.7328 143.949 41.481 142.21 38.7374C140.471 35.9939 135.006 25.768 116.87 26.0174Z" fill="#FCF7ED"/>
<path d="M101.919 35.206C101.919 35.206 97.6837 31.8638 91.2319 36.9568C84.7801 42.0499 75.8663 48.3625 74.2763 54.9495C72.6863 61.5365 79.1431 64.8413 79.1431 64.8413C79.1431 64.8413 87.0135 69.408 88.5364 70.2959C91.8579 72.2314 96.0018 72.159 98.4141 69.0015C103.765 61.993 104.053 53.6725 105.467 44.332C106.016 38.0243 102.58 35.5901 101.919 35.206Z" fill="#E8A466"/>
<path d="M122.668 55.1513C127.304 53.8001 130.036 49.1573 128.77 44.7814C127.505 40.4054 122.721 37.9533 118.085 39.3045C113.45 40.6556 110.718 45.2984 111.984 49.6744C113.249 54.0503 118.033 56.5024 122.668 55.1513Z" fill="#EDB685"/>
<path d="M126.337 46.3066C126.93 46.1338 127.07 44.8141 126.649 43.359C126.228 41.9038 125.406 40.8643 124.813 41.0372C124.22 41.21 124.081 42.5297 124.501 43.9848C124.922 45.44 125.744 46.4795 126.337 46.3066Z" fill="#3A2919"/>
<path d="M132.777 44.429C133.37 44.2561 133.509 42.9364 133.089 41.4813C132.668 40.0261 131.846 38.9866 131.253 39.1595C130.66 39.3323 130.521 40.652 130.941 42.1072C131.362 43.5623 132.184 44.6018 132.777 44.429Z" fill="#3A2919"/>
<path d="M81.3788 80.3372C81.3788 80.3372 96.7469 96.6014 85.8158 116.554C74.8848 136.508 53.604 130.569 53.604 130.569C53.604 130.569 71.1583 110.569 81.3788 80.3372Z" fill="#E8A466"/>
<path d="M100.225 112.314C103.93 112.314 106.933 108.406 106.933 103.585C106.933 98.7638 103.93 94.8555 100.225 94.8555C96.5205 94.8555 93.5173 98.7638 93.5173 103.585C93.5173 108.406 96.5205 112.314 100.225 112.314Z" fill="#E8A466"/>
<path d="M27.5584 160.451C33.3896 160.451 38.1168 155.706 38.1168 149.851C38.1168 143.997 33.3896 139.251 27.5584 139.251C21.7272 139.251 17 143.997 17 149.851C17 155.706 21.7272 160.451 27.5584 160.451Z" fill="#E8A466"/>
<g filter="url(#filter0_i_7_8678)">
<rect x="82.2031" y="69.2883" width="53.064" height="6" rx="3" transform="rotate(12.5464 82.2031 69.2883)" fill="#FF88AB"/>
</g>
<path d="M104.27 52.8618C104.27 52.8618 101.902 71.2785 93.7336 71.5928C90.2878 71.6601 88.5537 70.221 85.5701 68.5699" stroke="#3A2919" stroke-width="2" stroke-miterlimit="10" stroke-linecap="round"/>
<path d="M114.013 70.5378C114.013 70.5378 122.589 78.8134 137.679 78.1674C149.29 77.7708 155.822 71.8448 155.822 71.8448" stroke="#3A2919" stroke-width="2" stroke-miterlimit="10" stroke-linecap="round"/>
<path d="M74.0154 136.134C74.0154 136.134 92.6478 137.131 100.598 151.098C108.548 165.065 104.573 180.779 104.573 180.779C104.573 180.779 119.23 178.534 119.727 190.506" stroke="#3A2919" stroke-width="2" stroke-miterlimit="10" stroke-linecap="round"/>
<path d="M108.175 153.717L125.814 188.385C125.814 188.385 127.056 192.127 135.999 193.374" stroke="#3A2919" stroke-width="2" stroke-miterlimit="10" stroke-linecap="round"/>
<path d="M128.422 133.39C128.422 133.39 130.906 167.061 138.111 180.03C142.334 180.529 148.545 181.028 147.8 190.755" stroke="#3A2919" stroke-width="2" stroke-miterlimit="10" stroke-linecap="round"/>
<path d="M130.951 88.7349C130.951 88.7349 129.982 110.229 133.239 122.246" stroke="#3A2919" stroke-width="2" stroke-miterlimit="10" stroke-linecap="round"/>
<path d="M160.007 47H152.5C152.224 47 152 47.2239 152 47.5V48.7014C152 49.5521 152.851 52.1042 156.254 52.1042C159.656 52.1042 160.507 49.5521 160.507 48.7014V47.5C160.507 47.2239 160.283 47 160.007 47Z" fill="#3A2919"/>
</g>
<g opacity="0.2">
<path d="M21.3987 193.685C13.461 189.915 3.8884 196.89 0.0942873 200.849C-1.00899 201.93 -4.59952 207.351 0.916148 212.215C6.43182 217.079 9.14293 212.943 12.1423 213.942C15.1416 214.942 13.4618 221.064 21.74 222.709C28.3626 224.025 30.2185 216.996 30.3186 213.317C30.6526 208.344 29.3363 197.455 21.3987 193.685Z" fill="#89C8FF"/>
<ellipse cx="7.06613" cy="8.51007" rx="7.06613" ry="8.51007" transform="matrix(0.944123 0.329593 -0.31451 0.949254 14.6477 170.163)" fill="#89C8FF"/>
<ellipse cx="7.08507" cy="8.48652" rx="7.08507" ry="8.48652" transform="matrix(0.849432 0.527699 -0.520905 0.853615 33.0105 178.051)" fill="#89C8FF"/>
<ellipse cx="6.50925" cy="7.60842" rx="6.50925" ry="7.60842" transform="matrix(0.447887 0.89409 -0.900597 0.434654 43.9363 197.198)" fill="#89C8FF"/>
<ellipse cx="6.47973" cy="7.64387" rx="6.47973" ry="7.64387" transform="matrix(0.992483 0.122388 -0.101887 0.994796 -3.39819 178.239)" fill="#89C8FF"/>
</g>
<g opacity="0.2">
<path d="M275.196 42.8727C261.648 49.0652 260.265 69.0965 261.267 78.3381C261.466 80.9483 264.588 91.5197 276.916 89.6638C289.243 87.8079 286.831 79.7789 291.398 76.9755C295.966 74.1721 302.081 83.028 313.243 74.0763C322.172 66.9149 315.072 56.8421 310.406 52.7008C304.314 46.8446 288.745 36.6801 275.196 42.8727Z" fill="#89C8FF"/>
<ellipse cx="11.9786" cy="14.4263" rx="11.9786" ry="14.4263" transform="matrix(0.859625 -0.510926 0.524556 0.851376 237.282 25.9919)" fill="#89C8FF"/>
<ellipse cx="12.0107" cy="14.3864" rx="12.0107" ry="14.3864" transform="matrix(0.95041 -0.310999 0.318573 0.947899 267.564 10.7544)" fill="#89C8FF"/>
<ellipse cx="11.0345" cy="12.8979" rx="11.0345" ry="12.8979" transform="matrix(0.972686 0.232125 -0.246443 0.969157 304.33 17.4487)" fill="#89C8FF"/>
<ellipse cx="10.9845" cy="12.958" rx="10.9845" ry="12.958" transform="matrix(0.732072 -0.681228 0.696185 0.717862 228.088 58.2209)" fill="#89C8FF"/>
</g>
</g>
<defs>
<filter id="filter0_i_7_8678" x="81.4792" y="69.8677" width="51.9414" height="16.2251" filterUnits="userSpaceOnUse" color-interpolation-filters="sRGB">
<feFlood flood-opacity="0" result="BackgroundImageFix"/>
<feBlend mode="normal" in="SourceGraphic" in2="BackgroundImageFix" result="shape"/>
<feColorMatrix in="SourceAlpha" type="matrix" values="0 0 0 0 0 0 0 0 0 0 0 0 0 0 0 0 0 0 127 0" result="hardAlpha"/>
<feOffset dy="-1"/>
<feComposite in2="hardAlpha" operator="arithmetic" k2="-1" k3="1"/>
<feColorMatrix type="matrix" values="0 0 0 0 0 0 0 0 0 0 0 0 0 0 0 0 0 0 0.1 0"/>
<feBlend mode="normal" in2="shape" result="effect1_innerShadow_7_8678"/>
</filter>
<clipPath id="clip0_7_8678">
<rect x="0.5" width="310" height="214" rx="16" fill="white"/>
</clipPath>
<clipPath id="clip1_7_8678">
<rect width="23.9986" height="23.9986" fill="white" transform="translate(179.088 24) rotate(38.9563)"/>
</clipPath>
<clipPath id="clip2_7_8678">
<rect width="151" height="169" fill="white" transform="translate(17 26)"/>
</clipPath>
</defs>
</svg>
