<svg width="339" height="210" viewBox="0 0 339 210" fill="none" xmlns="http://www.w3.org/2000/svg">
<path d="M43.9316 146.202C42.27 140.69 37.8525 137.327 31.4492 137.286C22.3711 137.327 16.2109 144.257 16.2109 156.577C16.2109 168.979 22.1685 175.99 31.5303 176.03C39.9194 175.99 44.9043 171.248 45.0664 163.872H32.3408V154.713H56.8193V162.008C56.8193 177.408 46.2417 186.811 31.4492 186.811C14.9951 186.811 3.80957 175.301 3.80957 156.739C3.80957 137.691 15.7246 126.506 31.2061 126.506C44.4585 126.506 54.6309 134.652 56.252 146.202H43.9316ZM91.2092 167.276V141.987H103.205V186H91.6955V178.057H91.2092C89.2234 183.163 84.4817 186.567 77.8352 186.567C69.0408 186.567 63.0022 180.326 63.0022 170.032V141.987H74.9983V167.925C74.9983 173.153 77.9973 176.395 82.6985 176.436C87.0754 176.395 91.2092 173.274 91.2092 167.276ZM107.929 173.68C107.97 163.872 115.832 160.67 124.302 160.144C127.463 159.941 133.38 159.657 135.245 159.576V156.01C135.204 152.322 132.691 150.214 128.193 150.174C124.1 150.214 121.546 152.038 120.898 155.037H109.469C110.199 147.418 116.845 141.42 128.517 141.42C138.122 141.42 147.2 145.716 147.16 156.334V186H135.812V179.921H135.488C133.34 183.974 129.125 186.851 122.6 186.811C114.17 186.851 107.97 182.393 107.929 173.68ZM119.439 173.355C119.439 176.719 122.154 178.502 126.004 178.543C131.476 178.502 135.285 174.936 135.245 170.275V167.074C133.421 167.155 128.274 167.438 126.248 167.601C122.073 167.965 119.439 169.951 119.439 173.355ZM153.829 186V141.987H165.42V149.606H165.906C167.487 144.216 171.58 141.339 176.524 141.339C177.74 141.339 179.28 141.501 180.334 141.744V152.443C179.199 152.079 176.889 151.795 175.227 151.795C169.797 151.795 165.784 155.564 165.825 160.954V186H153.829ZM198.513 186.729C188.462 186.729 180.6 178.746 180.6 164.034C180.6 148.958 188.786 141.42 198.513 141.42C205.889 141.42 209.415 145.797 210.995 149.363H211.4V127.316H223.396V186H211.562V178.948H210.995C209.333 182.596 205.686 186.729 198.513 186.729ZM192.92 163.953C192.879 171.734 196.162 177.125 202.241 177.165C208.239 177.125 211.644 171.896 211.644 163.953C211.644 156.05 208.28 150.984 202.241 150.984C196.122 150.984 192.879 156.293 192.92 163.953ZM230.552 186V141.987H242.548V186H230.552ZM229.985 130.153C229.985 126.749 232.943 124.034 236.55 123.993C240.116 124.034 243.075 126.749 243.034 130.153C243.075 133.477 240.116 136.232 236.55 136.232C232.943 136.232 229.985 133.477 229.985 130.153ZM247.272 173.68C247.312 163.872 255.175 160.67 263.645 160.144C266.806 159.941 272.723 159.657 274.587 159.576V156.01C274.547 152.322 272.034 150.214 267.536 150.174C263.442 150.214 260.889 152.038 260.241 155.037H248.812C249.541 147.418 256.188 141.42 267.86 141.42C277.465 141.42 286.543 145.716 286.502 156.334V186H275.155V179.921H274.831C272.683 183.974 268.468 186.851 261.943 186.811C253.513 186.851 247.312 182.393 247.272 173.68ZM258.782 173.355C258.782 176.719 261.497 178.502 265.347 178.543C270.818 178.502 274.628 174.936 274.587 170.275V167.074C272.764 167.155 267.617 167.438 265.59 167.601C261.416 167.965 258.782 169.951 258.782 173.355ZM305.168 160.549V186H293.172V141.987H304.6V149.688H305.087C307.072 144.622 311.774 141.42 318.299 141.42C327.498 141.42 333.496 147.702 333.456 157.955V186H321.541V160.062C321.5 154.632 318.582 151.39 313.597 151.39C308.612 151.39 305.168 154.753 305.168 160.549Z" fill="white"/>
<g opacity="0.2">
<path d="M53.2021 47.8727C39.6536 54.0652 38.2706 74.0965 39.2726 83.3381C39.4721 85.9483 42.5939 96.5197 54.9216 94.6638C67.2494 92.8079 64.8365 84.7789 69.4043 81.9755C73.972 79.1721 80.0872 88.028 91.2487 79.0763C100.178 71.9149 93.0778 61.8421 88.4116 57.7008C82.3203 51.8446 66.7506 41.6801 53.2021 47.8727Z" fill="#89C8FF" stroke="#89C8FF" stroke-width="2" stroke-linecap="round"/>
<path d="M43.013 31.2903C47.0953 37.916 45.8291 45.815 40.4509 49.0116C35.0727 52.2081 27.3608 49.6454 23.2785 43.0197C19.1962 36.394 20.4624 28.495 25.8406 25.2985C31.2188 22.1019 38.9307 24.6646 43.013 31.2903Z" fill="#89C8FF" stroke="#89C8FF"/>
<path d="M72.5079 22.0761C74.9792 29.4295 71.957 36.8669 65.9918 38.8189C60.0266 40.7708 53.0995 36.5891 50.6281 29.2358C48.1568 21.8824 51.179 14.445 57.1442 12.493C63.1094 10.5411 70.0365 14.7228 72.5079 22.0761Z" fill="#89C8FF" stroke="#89C8FF"/>
<path d="M100.138 39.9555C98.4315 46.6652 92.4262 50.8599 86.8355 49.5257C81.2448 48.1915 77.9379 41.7745 79.6441 35.0649C81.3502 28.3552 87.3555 24.1605 92.9462 25.4947C98.5369 26.8289 101.844 33.2459 100.138 39.9555Z" fill="#89C8FF" stroke="#89C8FF"/>
<path d="M30.8249 57.8987C35.671 62.8957 36.0072 70.0901 31.8225 73.9841C27.6379 77.8781 20.3202 77.1804 15.4741 72.1833C10.628 67.1863 10.2918 59.9919 14.4764 56.0979C18.6611 52.2039 25.9788 52.9016 30.8249 57.8987Z" fill="#89C8FF" stroke="#89C8FF"/>
<path d="M281.664 104.47C276.977 101.288 270.057 104.845 267.182 107.021C266.354 107.608 263.449 110.742 266.458 114.393C269.467 118.045 271.665 115.651 273.483 116.581C275.301 117.51 273.547 121.278 278.686 123.129C282.797 124.609 284.764 120.277 285.234 117.926C285.996 114.766 286.35 107.652 281.664 104.47Z" fill="#89C8FF" stroke="#89C8FF" stroke-width="2" stroke-linecap="round"/>
<path d="M284.914 97.6762C283.556 100.24 280.853 101.268 278.949 100.26C277.046 99.2513 276.378 96.4374 277.736 93.8733C279.094 91.3093 281.798 90.2813 283.701 91.2897C285.605 92.2981 286.273 95.1121 284.914 97.6762Z" fill="#89C8FF" stroke="#89C8FF"/>
<path d="M293.743 105.406C291.849 107.604 288.985 108.006 287.353 106.6C285.721 105.194 285.694 102.302 287.588 100.104C289.482 97.9056 292.346 97.5038 293.978 98.9098C295.61 100.316 295.637 103.208 293.743 105.406Z" fill="#89C8FF" stroke="#89C8FF"/>
<path d="M293.312 117.905C290.862 118.658 288.513 117.565 287.936 115.686C287.359 113.806 288.691 111.584 291.14 110.832C293.59 110.08 295.939 111.172 296.516 113.051C297.093 114.931 295.762 117.153 293.312 117.905Z" fill="#89C8FF" stroke="#89C8FF"/>
<path d="M273.689 99.085C273.001 101.554 270.814 102.943 268.92 102.416C267.026 101.888 265.873 99.5683 266.56 97.0997C267.248 94.6311 269.434 93.2416 271.328 93.7691C273.223 94.2966 274.376 96.6164 273.689 99.085Z" fill="#89C8FF" stroke="#89C8FF"/>
</g>
<rect x="202.463" y="139.175" width="62.1869" height="48.8611" rx="4" fill="#FFF5D1"/>
<path d="M202.463 140.949L233.556 114.742L264.65 140.949H202.463Z" fill="#FFF5D1"/>
<rect x="234.151" y="106.449" width="8.10708" height="62.1641" rx="2.5" transform="rotate(45 234.151 106.449)" fill="#E8A466" stroke="#E8A466"/>
<rect y="-0.707107" width="8.10708" height="62.1641" rx="2.5" transform="matrix(-0.707107 0.707107 0.707107 0.707107 234.629 106.985)" fill="#E8A466" stroke="#E8A466"/>
<rect x="214.874" y="134.702" width="37.3121" height="20.4328" rx="2" fill="#DA3529"/>
<circle cx="221.874" cy="142.513" r="3.97926" transform="rotate(-20.7859 221.874 142.513)" fill="white"/>
<circle cx="221.918" cy="147.705" r="3.97926" transform="rotate(-20.7859 221.918 147.705)" fill="white"/>
<circle cx="244.917" cy="142.513" r="3.97926" transform="rotate(-20.7859 244.917 142.513)" fill="white"/>
<circle cx="244.961" cy="147.705" r="3.97926" transform="rotate(-20.7859 244.961 147.705)" fill="white"/>
<rect x="223.835" y="142.448" width="19.768" height="5.39126" fill="white"/>
<path d="M218.447 175.563C218.447 167.222 225.208 160.46 233.549 160.46C241.89 160.46 248.652 167.222 248.652 175.563V188H218.447V175.563Z" fill="#735438"/>
<path fill-rule="evenodd" clip-rule="evenodd" d="M109.463 86.816C108.972 85.116 107.066 85.116 106.575 86.816L104.346 94.5407L98.2199 97.3505C96.8717 97.9697 96.8717 100.373 98.2199 100.992L104.346 103.802L106.575 111.526C107.066 113.226 108.972 113.226 109.463 111.526L111.691 103.802L117.818 100.992C119.166 100.373 119.166 97.9697 117.818 97.3505L111.691 94.5407L109.463 86.816Z" fill="#FFBE18"/>
<path fill-rule="evenodd" clip-rule="evenodd" d="M207.787 27.2436C207.424 26.0126 206.016 26.0126 205.653 27.2436L204.006 32.8373L199.477 34.872C198.481 35.3204 198.481 37.0604 199.477 37.5088L204.006 39.5436L205.653 45.1373C206.016 46.3683 207.424 46.3683 207.787 45.1373L209.435 39.5436L213.963 37.5088C214.959 37.0604 214.959 35.3204 213.963 34.872L209.435 32.8373L207.787 27.2436Z" fill="#FFBE18"/>
<g clip-path="url(#clip0_7_7193)">
<path d="M142.675 7.3313C142.675 7.3313 140.403 8.08255 138.131 18.6001C137.374 23.1076 135.859 25.5426 134.344 31.5526C132.829 37.5627 127.527 51.0853 127.527 63.8566C127.527 76.6279 133.587 79.6329 133.587 86.3942C133.587 93.1555 135.859 105.176 135.859 115.693C135.859 126.211 132.829 149.357 127.527 160.325C122.226 171.293 120.711 178.798 120.711 187.062H205.312C205.312 187.062 203.267 168.281 198.723 160.768C194.178 153.256 191.906 125.459 191.906 113.439C191.906 101.419 191.906 90.1505 192.663 83.3892C193.413 78.9418 199.48 73.6229 198.723 60.8516C198.723 60.8516 194.936 41.319 190.391 29.2989C185.847 17.2788 185.09 14.8438 185.09 14.8438C185.09 14.8438 182.901 7.3313 180.204 7.3313C179.788 9.58506 179.03 28.5476 177.516 33.8064C176.001 39.0652 173.729 48.8315 173.729 48.8315L151.007 49.5827C151.007 49.5827 148.735 39.8164 147.22 33.8064C145.705 27.7964 142.675 7.3313 142.675 7.3313Z" fill="#424242"/>
<path d="M136.616 88.6479C136.616 88.6479 136.616 96.1605 140.403 96.9117C144.19 97.663 147.22 91.653 149.492 91.653C151.764 91.653 151.764 94.658 151.764 94.658V105.04H169.76V95.4092C169.76 95.4092 169.184 90.1505 171.456 90.1505C173.729 90.1505 174.486 96.1605 179.788 96.1605C185.09 96.1605 188.877 87.8967 188.877 87.8967C188.877 87.8967 189.634 85.6429 190.391 87.8967C191.149 90.1505 191.149 97.663 191.149 97.663C191.149 97.663 191.149 101.419 185.847 108.181C184.332 110.434 184.332 119.449 181.303 121.703C178.273 123.957 176.001 124.708 170.699 123.957C170.699 123.957 168.427 127.713 161.61 127.713C154.794 127.713 152.522 123.957 152.522 123.957C152.522 123.957 146.462 124.708 144.948 122.454C143.433 120.201 141.918 117.947 142.675 108.932C142.675 107.429 136.616 106.678 135.859 98.4143C135.101 90.1505 135.859 87.1454 136.616 88.6479Z" fill="#AA752F"/>
<path d="M181.777 5.64014C181.777 5.64014 179.49 5.64014 179.49 7.02314C179.49 8.40615 177.965 25.0645 180.252 32.2907C182.54 39.5169 183.303 54.7368 188.641 60.2689C193.979 65.8009 194.742 65.8009 196.267 65.8009C197.792 65.8009 197.792 58.8859 197.792 54.0453C197.792 49.2048 193.979 36.9522 191.691 32.1117C189.403 27.2712 186.353 5.64014 181.777 5.64014Z" fill="#AA752F"/>
<path d="M142.705 5.64014C142.705 5.64014 144.173 5.64014 144.173 7.02314C144.173 8.40615 146.375 25.0645 144.173 32.2907C141.971 39.5169 141.237 54.7368 136.099 60.2689C130.961 65.8009 130.227 65.8009 128.759 65.8009C127.291 65.8009 127.291 58.8859 127.291 54.0453C127.291 49.2048 130.961 38.8323 133.163 33.9918C135.365 29.1512 138.301 5.64014 142.705 5.64014Z" fill="#AA752F"/>
<path d="M162.368 116.82V120.554C162.368 120.554 155.93 124.333 150.295 124.333C144.66 124.333 143.054 120.576 143.054 118.323" stroke="#111111" stroke-width="2" stroke-miterlimit="10" stroke-linecap="round"/>
<path d="M162.746 116.82V120.554C162.746 120.554 169.04 124.333 175.213 124.333C180.166 124.333 183.196 120.576 183.953 116.82" stroke="#111111" stroke-width="2" stroke-miterlimit="10" stroke-linecap="round"/>
<path d="M156.312 65.9426C156.678 64.5367 155.99 63.1443 154.776 62.8326C153.561 62.521 152.279 63.4081 151.912 64.814C151.545 66.2199 152.233 67.6123 153.448 67.9239C154.663 68.2356 155.945 67.3485 156.312 65.9426Z" fill="#AA752F"/>
<path d="M174.37 67.659C175.457 67.0367 175.745 65.5127 175.013 64.255C174.281 62.9974 172.806 62.4824 171.719 63.1048C170.633 63.7272 170.345 65.2512 171.077 66.5088C171.809 67.7664 173.284 68.2814 174.37 67.659Z" fill="#AA752F"/>
<path d="M147.598 81.1356C148.644 81.1356 149.492 79.622 149.492 77.7549C149.492 75.8878 148.644 74.3743 147.598 74.3743C146.553 74.3743 145.705 75.8878 145.705 77.7549C145.705 79.622 146.553 81.1356 147.598 81.1356Z" fill="#020202"/>
<path d="M176.379 81.1356C177.425 81.1356 178.273 79.622 178.273 77.7549C178.273 75.8878 177.425 74.3743 176.379 74.3743C175.334 74.3743 174.486 75.8878 174.486 77.7549C174.486 79.622 175.334 81.1356 176.379 81.1356Z" fill="#020202"/>
<path d="M162.671 102.171C162.671 102.171 169.942 102.171 169.942 105.168C169.942 109.172 169.563 108.894 167.215 113.169C164.731 117.699 163.784 117.173 160.853 117.173C159.035 117.173 155.4 113.169 155.4 113.169C155.4 113.169 151.764 109.165 151.764 105.168C151.764 102.171 159.944 102.171 159.944 102.171" fill="#020202"/>
<path d="M148.735 156.261C148.735 156.261 156.309 178.047 159.338 185.56" stroke="#111111" stroke-width="2" stroke-miterlimit="10" stroke-linecap="round"/>
<path d="M172.07 180.301C172.07 180.301 180.545 159.266 181.303 148.749" stroke="#111111" stroke-width="2" stroke-miterlimit="10" stroke-linecap="round"/>
<path d="M134.261 187.062C134.261 187.062 132.829 175.042 135.859 172.788C138.57 170.775 143.433 170.535 145.705 175.793C147.977 181.052 149.81 185.56 149.651 187.062H134.261Z" fill="#AA752F"/>
<path d="M194.898 187.062C194.898 187.062 196.329 175.042 193.3 172.788C190.588 170.775 185.726 170.535 183.454 175.793C181.181 181.052 179.348 185.56 179.508 187.062H194.898Z" fill="#AA752F"/>
</g>
<path d="M101.21 80.7625C92.8752 81.0732 85.8666 74.5685 85.5558 66.2337C85.245 57.8989 91.7497 50.8903 100.085 50.5795C108.419 50.2687 115.428 56.7734 115.739 65.1082C116.05 73.443 109.545 80.4517 101.21 80.7625Z" fill="white" fill-opacity="0.6" stroke="#20A1FF" stroke-width="4"/>
<path d="M88.6573 76.0337L81.57 83.6701" stroke="#20A1FF" stroke-width="4" stroke-linecap="round"/>
<path d="M99.6292 75.6739C102.449 75.9873 108.559 74.8279 110.439 67.6838" stroke="#20A1FF" stroke-width="2" stroke-linecap="round"/>
<circle cx="110.909" cy="64.8638" r="0.940012" fill="#20A1FF"/>
<defs>
<clipPath id="clip0_7_7193">
<rect width="84.6011" height="187.062" fill="white" transform="translate(120.711)"/>
</clipPath>
</defs>
</svg>
