<svg width="154" height="154" viewBox="0 0 154 154" fill="none" xmlns="http://www.w3.org/2000/svg">
<path d="M81.3286 29.1552C81.3286 18.8542 89.7948 15.9978 94.6963 15.8349C99.5977 15.6721 107.618 19.387 107.618 29.1552V105.524C107.618 109.965 110.292 112.629 116.085 112.629C121.877 112.629 124.103 108.028 127.222 105.075C133.014 99.5919 140.146 102.712 143.265 105.524C146.707 108.627 150.392 116.176 145.048 123.285C138.205 132.386 129.452 138.381 115.193 138.825C87.7451 139.18 81.1801 118.253 81.3286 107.745V29.1552Z" fill="#20A1FF"/>
<rect x="111.051" y="35.4521" width="27.7383" height="27.7399" rx="13.8691" fill="#20A1FF"/>
<rect x="7.75488" y="109.63" width="29.1982" height="29.1999" rx="14.5991" fill="#20A1FF"/>
<path d="M7.74219 31.8298C7.74219 22.9933 14.9056 15.8298 23.7422 15.8298H44.6373C69.5452 15.8298 89.7372 36.0218 89.7372 60.9297C89.7372 85.8377 69.5453 106.03 44.6373 106.03H23.7422C14.9057 106.03 7.74219 98.8662 7.74219 90.0296V31.8298Z" fill="#20A1FF"/>
<g clip-path="url(#clip0_193_2844)">
<path d="M58.233 33.8849C58.233 33.8849 45.6035 33.0668 39.2887 43.4973C32.9739 53.9277 34.6035 63.5401 32.7702 68.244C30.9369 72.9479 22.5851 99.7399 12.3999 112.011C2.21482 124.282 -6.95179 136.553 -1.45183 151.892C4.04814 167.231 21.1591 172.139 37.0479 172.344C52.9367 172.548 61.0848 172.957 61.0848 168.049H66.5848C66.5848 168.049 67.1959 171.526 75.9551 171.117C83.2884 170.912 84.5106 169.685 84.5106 167.844C84.5106 166.004 83.6958 165.799 83.6958 165.799C83.6958 165.799 87.1588 166.208 89.3995 165.39C90.418 164.981 91.0291 164.368 91.2328 163.345C91.4365 162.322 92.0476 157.823 84.3069 155.778C84.3069 155.778 68.4181 124.487 69.844 82.7648C69.844 80.1061 70.8626 76.4248 70.8626 76.4248C70.8626 76.4248 94.6957 80.5151 99.7883 55.9729C101.418 46.7696 97.3439 45.9515 93.4735 45.9515C89.6032 45.9515 80.4366 46.5651 79.0107 44.3154C77.5847 42.0657 73.1033 33.6804 58.233 33.8849Z" fill="white"/>
<path d="M45.976 41.4216C45.976 41.4216 42.5029 38.6811 37.2128 42.8573C31.9226 47.0336 24.6138 52.2099 23.3101 57.6113C22.0064 63.0126 27.3006 65.7225 27.3006 65.7225C27.3006 65.7225 33.7539 69.4672 35.0026 70.1953C37.7261 71.7824 41.1238 71.7231 43.1018 69.1338C47.4895 63.3869 47.7258 56.5641 48.8849 48.9049C49.3351 43.7327 46.5179 41.7366 45.976 41.4216Z" fill="white"/>
<path d="M65.9935 50.5221C66.4797 50.3804 66.5941 49.2983 66.2491 48.1052C65.9041 46.912 65.2303 46.0597 64.7441 46.2014C64.2579 46.3431 64.1435 47.4252 64.4885 48.6184C64.8335 49.8115 65.5074 50.6639 65.9935 50.5221Z" fill="#232323"/>
<path d="M71.2782 48.9848C71.7644 48.8431 71.8788 47.7609 71.5338 46.5678C71.1887 45.3747 70.5149 44.5223 70.0287 44.664C69.5426 44.8058 69.4281 45.8879 69.7732 47.081C70.1182 48.2742 70.792 49.1265 71.2782 48.9848Z" fill="#232323"/>
<path d="M47.6828 56.0098C47.6828 56.0098 45.5027 70.5195 37.981 70.7671C34.8081 70.8201 33.2113 69.6863 30.4639 68.3855" stroke="#20A1FF" stroke-width="2" stroke-miterlimit="10" stroke-linecap="round"/>
<path d="M60.3916 73.6396C60.3916 73.6396 63.1143 75.9378 70.641 76.9196C80.8903 78.2566 87.4499 74.8696 87.4499 74.8696M62.4415 104.39C62.4415 104.842 62.0744 105.21 61.6215 105.21C61.1687 105.21 60.8016 104.842 60.8016 104.39C60.8016 103.937 61.1687 103.57 61.6215 103.57C62.0744 103.57 62.4415 103.937 62.4415 104.39Z" stroke="#20A1FF" stroke-width="2" stroke-miterlimit="10" stroke-linecap="round"/>
<path d="M93.5154 51.0898H87.54C87.2639 51.0898 87.04 51.3137 87.04 51.5898V52.4849C87.04 53.1824 87.7376 55.275 90.5277 55.275C93.3178 55.275 94.0154 53.1824 94.0154 52.4849V51.5898C94.0154 51.3137 93.7915 51.0898 93.5154 51.0898Z" fill="#232323"/>
<ellipse cx="58.3419" cy="71.5897" rx="0.81995" ry="0.81995" fill="#20A1FF"/>
</g>
<defs>
<clipPath id="clip0_193_2844">
<rect width="86.0947" height="57.3999" fill="white" transform="translate(18.9844 28.1299)"/>
</clipPath>
</defs>
</svg>
