<svg width="189" height="70" viewBox="0 0 189 70" fill="none" xmlns="http://www.w3.org/2000/svg">
<rect width="189" height="58" rx="8" fill="#FFF5D1"/>
<path d="M29.7716 18.2812V19.5156H24.0528V24.3281H22.5997V19.5156H16.9591V18.2812H29.7716ZM18.3497 13.9688C18.3575 12.0625 20.3731 10.8594 23.3341 10.8594C26.295 10.8594 28.3262 12.0625 28.3184 13.9688C28.3262 15.8516 26.295 17.0469 23.3341 17.0469C20.3731 17.0469 18.3575 15.8516 18.3497 13.9688ZM19.8809 13.9688C19.8731 15.1328 21.2559 15.8594 23.3341 15.8594C25.42 15.8594 26.795 15.1328 26.8028 13.9688C26.795 12.7891 25.42 12.0547 23.3341 12.0469C21.2559 12.0547 19.8731 12.7891 19.8809 13.9688ZM42.1078 10.3281V24.3594H40.6234V10.3281H42.1078ZM31.2641 12.7969V11.5938H37.8266V16.7031H32.7953V19.7656C35.0687 19.7578 37.0453 19.6484 39.3891 19.2656L39.5297 20.4844C37.0531 20.8984 34.9437 20.9922 32.4672 21H31.2797V15.5156H36.3109V12.7969H31.2641ZM58.5772 10.3281V13.8594H60.6084V15.0625H58.5772V18.6406H57.0928V10.3281H58.5772ZM47.5616 17.5469C50.8428 16.625 52.8506 14.7969 53.1241 12.5312H48.1866V11.3281H54.7334C54.7334 14.9453 52.2725 17.5625 48.1709 18.75L47.5616 17.5469ZM49.4678 21.5469C49.4522 19.8438 51.2959 18.7891 54.1084 18.7969C56.9287 18.7891 58.7334 19.8438 58.7334 21.5469C58.7334 23.2656 56.9287 24.3047 54.1084 24.3125C51.2959 24.3047 49.4522 23.2656 49.4678 21.5469ZM50.9366 21.5469C50.9287 22.5312 52.1475 23.1328 54.1084 23.1406C56.0537 23.1328 57.2803 22.5312 57.2803 21.5469C57.2803 20.5625 56.0537 19.9609 54.1084 19.9688C52.1475 19.9609 50.9287 20.5625 50.9366 21.5469ZM64.8353 11.375C66.9291 11.3828 68.4212 13.2891 68.4291 16.2812C68.4212 19.3047 66.9291 21.2109 64.8353 21.2031C62.7416 21.2109 61.2494 19.3047 61.2572 16.2812C61.2494 13.2891 62.7416 11.3828 64.8353 11.375ZM62.6791 16.2812C62.6712 18.5078 63.5619 19.875 64.8353 19.875C66.1322 19.875 67.0072 18.5078 67.0072 16.2812C67.0072 14.0859 66.1322 12.7109 64.8353 12.7031C63.5619 12.7109 62.6712 14.0859 62.6791 16.2812ZM70.5072 24.3281V10.3281H71.9916V15.8125H74.2416V17.0625H71.9916V24.3281H70.5072ZM79.7497 14.4531C79.7419 16.7969 81.2809 19.2188 83.4372 20.1406L82.6247 21.2969C80.9762 20.5703 79.6637 19.0234 79.0153 17.1562C78.3669 19.1562 77.0544 20.8594 75.4216 21.6562L74.5622 20.4844C76.6716 19.4922 78.2341 16.8672 78.2497 14.4531V12.9688H75.0466V11.7344H82.9372V12.9688H79.7497V14.4531ZM84.7028 24.3281V10.3281H86.1872V24.3281H84.7028Z" fill="#111111"/>
<path d="M96.6566 12.4219C96.6488 14.3828 97.9222 16.1328 100.047 16.8281L99.2347 17.9844C97.6956 17.4219 96.5628 16.3438 95.9534 14.9375C95.3519 16.5391 94.1331 17.7969 92.4378 18.4062L91.6409 17.2188C93.8753 16.4531 95.1722 14.5859 95.1878 12.4844V11.1094H96.6566V12.4219ZM93.9378 21.6562C93.93 19.9609 95.7269 18.9766 98.6722 18.9844C101.602 18.9766 103.399 19.9609 103.407 21.6562C103.399 23.3438 101.602 24.3047 98.6722 24.2969C95.7269 24.3047 93.93 23.3438 93.9378 21.6562ZM95.4066 21.6562C95.3988 22.5859 96.6175 23.1328 98.6722 23.125C100.711 23.1328 101.93 22.5859 101.938 21.6562C101.93 20.6953 100.711 20.1406 98.6722 20.1406C96.6175 20.1406 95.3988 20.6953 95.4066 21.6562ZM98.9222 14.3906V13.1719H101.875V10.3281H103.36V18.5938H101.875V14.3906H98.9222ZM118.18 12.6406V13.8594H116.196V15.625H118.18V16.8438H116.196V19.3125H114.712V10.3281H116.196V12.6406H118.18ZM105.212 13V11.8281H108.649V10.2188H110.133V11.8281H113.555V13H105.212ZM105.977 16.1406C105.969 14.6328 107.344 13.6484 109.383 13.6406C111.399 13.6484 112.774 14.6328 112.774 16.1406C112.774 17.6406 111.399 18.6172 109.383 18.6094C107.344 18.6172 105.969 17.6406 105.977 16.1406ZM107.087 21.875C107.071 20.3281 108.837 19.4219 111.727 19.4219C114.579 19.4219 116.352 20.3281 116.352 21.875C116.352 23.3984 114.579 24.3047 111.727 24.2969C108.837 24.3047 107.071 23.3984 107.087 21.875ZM107.415 16.1406C107.399 16.9688 108.196 17.4844 109.383 17.4844C110.571 17.4844 111.368 16.9688 111.383 16.1406C111.368 15.2891 110.571 14.75 109.383 14.75C108.196 14.75 107.399 15.2891 107.415 16.1406ZM108.555 21.875C108.548 22.6953 109.712 23.1719 111.727 23.1719C113.712 23.1719 114.876 22.6953 114.883 21.875C114.876 21.0234 113.712 20.5703 111.727 20.5625C109.712 20.5703 108.548 21.0234 108.555 21.875ZM131.501 17.6562V18.8438H125.938V21.4219H124.47V18.8438H118.688V17.6562H131.501ZM120.282 24.0312V20.2031H121.751V22.8281H130.079V24.0312H120.282ZM120.376 16.4219V10.7656H121.845V12.4688H128.329V10.7656H129.813V16.4219H120.376ZM121.845 15.2344H128.329V13.5781H121.845V15.2344ZM137.15 12.5625C137.142 14.4219 138.415 16.1719 140.525 16.875L139.712 18.0625C138.173 17.5 137.033 16.375 136.431 14.9609C135.814 16.5156 134.626 17.7344 132.993 18.3594L132.197 17.1562C134.392 16.3984 135.658 14.5547 135.665 12.4844V11.0469H137.15V12.5625ZM134.4 20.5312V19.3594H143.884V24.3281H142.4V20.5312H134.4ZM139.447 14.375V13.1562H142.4V10.3281H143.884V18.625H142.4V14.375H139.447ZM156.627 10.3281V16H158.877V17.2344H156.627V24.3281H155.158V10.3281H156.627ZM145.642 13.7344V12.5156H149.095V10.5156H150.58V12.5156H153.939V13.7344H145.642ZM146.361 18.0156C146.361 16.1094 147.83 14.7656 149.845 14.7656C151.853 14.7656 153.322 16.1094 153.33 18.0156C153.322 19.9375 151.853 21.2734 149.845 21.2812C147.83 21.2734 146.361 19.9375 146.361 18.0156ZM147.783 18.0156C147.775 19.2344 148.65 20.0469 149.845 20.0312C151.033 20.0469 151.9 19.2344 151.908 18.0156C151.9 16.8203 151.033 15.9922 149.845 15.9844C148.65 15.9922 147.775 16.8203 147.783 18.0156ZM170.557 11.6719V13.0469C170.549 14.7734 170.549 16.7109 170.025 19.5781L168.525 19.4219C169.064 16.7109 169.064 14.7266 169.072 13.0469V12.875H160.572V11.6719H170.557ZM159.228 22.4375V21.2031H164.088V16.2656H165.557V21.2031H171.994V22.4375H159.228Z" fill="#20A1FF"/>
<path d="M41.2566 34.3281V38H43.0222V39.25H41.2566V42.7031H39.7722V34.3281H41.2566ZM30.4597 41.7344V35.4375H34.0066V36.6406H31.8659V40.5C32.5769 40.4766 33.3581 40.4062 34.2097 40.2031L34.3503 41.4531C33.0925 41.7188 32.0612 41.7266 31.1003 41.7344H30.4597ZM31.8191 44.5156V43.3281H41.2566V48.3438H39.7722V44.5156H31.8191ZM34.8034 41.7344V35.4375H38.5378V36.6406H36.2253V40.5078C37.2878 40.4844 38.0534 40.4141 38.9597 40.2031L39.1159 41.4375C37.9362 41.6953 37.0378 41.7266 35.5222 41.7344H34.8034ZM54.1791 35.2656V41.2969H47.6322V35.2656H54.1791ZM48.4447 47.125C50.8431 46.7812 52.6322 45.6016 52.8587 44.2344H49.0072V43.0469H58.3041V44.2344H54.4681C54.6791 45.5703 56.4994 46.7812 58.8822 47.1406L58.3353 48.2812C56.2103 47.9531 54.4603 46.9766 53.6478 45.6484C52.8509 46.9844 51.1166 47.9453 48.9916 48.2656L48.4447 47.125ZM49.0853 40.1094H52.7259V36.4531H49.0853V40.1094ZM56.6009 42.2656V34.3281H58.0853V37.5781H60.1166V38.8125H58.0853V42.2656H56.6009ZM71.9216 38.4219V39.6094H62.2809V34.8281H63.7497V38.4219H71.9216ZM60.5778 42.5625V41.375H73.3903V42.5625H60.5778ZM62.1716 48V43.8906H63.6559V46.7812H72.0153V48H62.1716ZM79.5628 35.6719V39.0312H82.2503V35.6719H83.6097V39.5781H85.4691V34.6094H86.8909V47.6562H85.4691V40.8125H83.6097V44.875H78.1566V35.6719H79.5628ZM79.5628 43.6406H82.2503V40.2344H79.5628V43.6406ZM88.3128 48.3281V34.3281H89.7347V48.3281H88.3128ZM104.008 45.3281V46.5781H91.1959V45.3281H104.008ZM92.2897 36.8906V35.6719H102.837V36.8906H100.696V41.5625H102.79V42.75H92.3209V41.5625H94.4147V36.8906H92.2897ZM95.8834 41.5625H99.2428V36.8906H95.8834V41.5625ZM113.197 37.2188C113.197 38.8125 114.462 40.3125 116.603 40.9062L115.931 42.0469C114.298 41.5859 113.103 40.6016 112.478 39.3438C111.861 40.7344 110.634 41.8047 108.978 42.3125L108.259 41.1406C110.4 40.5312 111.728 38.9609 111.728 37.2188V37.0625H108.681V35.875H111.728V34.2656H113.212V35.875H116.243V37.0625H113.197V37.2188ZM109.65 47.125C112.001 46.7891 113.783 45.6406 114.048 44.2969H110.212V43.1094H119.509V44.2969H115.681C115.939 45.6094 117.743 46.7891 120.087 47.1406L119.54 48.2812C117.408 47.9531 115.665 46.9766 114.853 45.6484C114.048 46.9766 112.314 47.9297 110.197 48.2656L109.65 47.125ZM117.806 42.4062V34.3281H119.29V37.6875H121.322V38.9219H119.29V42.4062H117.806ZM133.439 34.3281V48.3281H131.939V34.3281H133.439ZM121.939 44.5781C125.658 42.8047 127.478 40.2812 127.767 37.0156H122.611V35.8281H129.267C129.267 39.9297 127.525 43.4766 122.72 45.7812L121.939 44.5781Z" fill="#20A1FF"/>
<g clip-path="url(#clip0_205_2897)">
<path d="M150.441 34.6038C150.441 34.6038 146.92 34.3758 145.16 37.2834C143.4 40.191 143.854 42.8706 143.343 44.1818C142.832 45.4931 140.504 52.9617 137.664 56.3824C134.825 59.8032 132.27 63.2239 133.803 67.4998C135.336 71.7757 140.106 73.144 144.535 73.201C148.965 73.258 151.236 73.3721 151.236 72.0038H152.769C152.769 72.0038 152.939 72.973 155.381 72.8589C157.425 72.8019 157.766 72.4599 157.766 71.9467C157.766 71.4336 157.539 71.3766 157.539 71.3766C157.539 71.3766 158.504 71.4907 159.129 71.2626C159.413 71.1486 159.583 70.9775 159.64 70.6925C159.697 70.4074 159.867 69.1532 157.709 68.583C157.709 68.583 153.28 59.8602 153.678 48.2297C153.678 47.4885 153.962 46.4623 153.962 46.4623C153.962 46.4623 160.605 47.6026 162.025 40.7611C162.479 38.1956 161.344 37.9675 160.265 37.9675C159.186 37.9675 156.631 38.1386 156.233 37.5114C155.836 36.8843 154.586 34.5468 150.441 34.6038Z" stroke="#20A1FF" stroke-width="1.25"/>
<path d="M147.024 36.7048C147.024 36.7048 146.056 35.9409 144.581 37.1051C143.106 38.2692 141.069 39.7122 140.706 41.2179C140.342 42.7236 141.818 43.479 141.818 43.479C141.818 43.479 143.617 44.5229 143.965 44.7259C144.724 45.1683 145.671 45.1517 146.223 44.43C147.446 42.8279 147.512 40.926 147.835 38.7909C147.96 37.3491 147.175 36.7926 147.024 36.7048Z" fill="#FFF5D1" stroke="#20A1FF" stroke-width="1.25"/>
<path d="M152.604 39.2417C152.74 39.2022 152.772 38.9005 152.676 38.5679C152.58 38.2353 152.392 37.9977 152.256 38.0372C152.121 38.0767 152.089 38.3784 152.185 38.711C152.281 39.0436 152.469 39.2812 152.604 39.2417Z" fill="#20A1FF"/>
<path d="M154.078 38.8131C154.213 38.7736 154.245 38.4719 154.149 38.1393C154.053 37.8067 153.865 37.5691 153.729 37.6086C153.594 37.6481 153.562 37.9498 153.658 38.2824C153.754 38.615 153.942 38.8526 154.078 38.8131Z" fill="#20A1FF"/>
<path d="M160.027 39.3999H158.86C158.645 39.3999 158.471 39.574 158.471 39.7888C158.471 39.9832 158.666 40.5666 159.443 40.5666C160.221 40.5666 160.416 39.9832 160.416 39.7888C160.416 39.574 160.242 39.3999 160.027 39.3999Z" fill="#20A1FF"/>
</g>
<path d="M94 70L100.928 58H87.0718L94 70Z" fill="#FFF5D1"/>
<defs>
<clipPath id="clip0_205_2897">
<rect width="24" height="16.0009" fill="white" transform="translate(139.5 32.9995)"/>
</clipPath>
</defs>
</svg>
