<svg width="18" height="22" viewBox="0 0 18 22" fill="none" xmlns="http://www.w3.org/2000/svg">
<g id="Group">
<path id="Vector" d="M11 8C11 8.53043 10.7893 9.03914 10.4142 9.41421C10.0391 9.78929 9.53043 10 9 10C8.46957 10 7.96086 9.78929 7.58579 9.41421C7.21071 9.03914 7 8.53043 7 8C7 7.46957 7.21071 6.96086 7.58579 6.58579C7.96086 6.21071 8.46957 6 9 6C9.53043 6 10.0391 6.21071 10.4142 6.58579C10.7893 6.96086 11 7.46957 11 8Z" fill="#A1A1A1" stroke="#A1A1A1" stroke-width="2" stroke-linecap="round" stroke-linejoin="round"/>
<path id="Vector_2" d="M16.7 8.6C16.7 12.328 14.7424 15.3154 12.6846 17.4223C11.662 18.4694 10.6365 19.2755 9.86676 19.8193C9.56525 20.0323 9.30434 20.2041 9.1 20.3334C8.89566 20.2041 8.63475 20.0323 8.33324 19.8193C7.56346 19.2755 6.538 18.4694 5.5154 17.4223C3.45757 15.3154 1.5 12.328 1.5 8.6C1.5 6.58435 2.30071 4.65126 3.72599 3.22599C5.15127 1.80071 7.08435 1 9.1 1C11.1156 1 13.0487 1.80071 14.474 3.22599C15.8993 4.65126 16.7 6.58435 16.7 8.6Z" stroke="#A1A1A1" stroke-width="2" stroke-linecap="round" stroke-linejoin="round"/>
</g>
</svg>
