<svg width="33" height="32" viewBox="0 0 33 32" fill="none" xmlns="http://www.w3.org/2000/svg">
<g id="ic-man">
<path id="Vector" d="M23.96 25.9601H9.34002C9.33671 25.9599 9.33081 25.9596 9.32261 25.959C9.29916 25.9573 9.25913 25.9535 9.20846 25.9451C9.10239 25.9274 8.97625 25.8939 8.86221 25.8369C8.75209 25.7818 8.67239 25.7149 8.61799 25.6333C8.56776 25.558 8.5 25.4126 8.5 25.1301C8.5 24.4543 8.87174 22.855 10.0893 21.4346C11.2658 20.0619 13.2727 18.8101 16.65 18.8101C20.0273 18.8101 22.0342 20.0619 23.2107 21.4346C24.4283 22.855 24.8 24.4543 24.8 25.1301C24.8 25.4126 24.7322 25.558 24.682 25.6333C24.6276 25.7149 24.5479 25.7818 24.4378 25.8369C24.3237 25.8939 24.1976 25.9274 24.0915 25.9451C24.0409 25.9535 24.0008 25.9573 23.9774 25.959C23.9692 25.9596 23.9633 25.9599 23.96 25.9601Z" stroke="#A1A1A1" stroke-width="2"/>
<path id="Vector_2" d="M20.0355 14.5355C19.0979 15.4732 17.8261 16 16.5 16C15.1739 16 13.9021 15.4732 12.9645 14.5355C12.0268 13.5979 11.5 12.3261 11.5 11C11.5 9.67392 12.0268 8.40215 12.9645 7.46447C13.9021 6.52678 15.1739 6 16.5 6C17.8261 6 19.0979 6.52678 20.0355 7.46447C20.9732 8.40215 21.5 9.67392 21.5 11C21.5 12.3261 20.9732 13.5979 20.0355 14.5355Z" stroke="#A1A1A1" stroke-width="2"/>
</g>
</svg>
