<svg width="23" height="22" viewBox="0 0 23 22" fill="none" xmlns="http://www.w3.org/2000/svg">
<g id="Group">
<path id="Vector" d="M17.0017 11.5517C17.1475 11.5517 17.2874 11.4937 17.3906 11.3906C17.4937 11.2874 17.5517 11.1475 17.5517 11.0017C17.5517 10.8558 17.4937 10.7159 17.3906 10.6128C17.2874 10.5096 17.1475 10.4517 17.0017 10.4517C16.8558 10.4517 16.7159 10.5096 16.6128 10.6128C16.5096 10.7159 16.4517 10.8558 16.4517 11.0017C16.4517 11.1475 16.5096 11.2874 16.6128 11.3906C16.7159 11.4937 16.8558 11.5517 17.0017 11.5517ZM11.5017 11.5517C11.6475 11.5517 11.7874 11.4937 11.8906 11.3906C11.9937 11.2874 12.0517 11.1475 12.0517 11.0017C12.0517 10.8558 11.9937 10.7159 11.8906 10.6128C11.7874 10.5096 11.6475 10.4517 11.5017 10.4517C11.3558 10.4517 11.2159 10.5096 11.1128 10.6128C11.0096 10.7159 10.9517 10.8558 10.9517 11.0017C10.9517 11.1475 11.0096 11.2874 11.1128 11.3906C11.2159 11.4937 11.3558 11.5517 11.5017 11.5517ZM6.00166 11.5517C6.14753 11.5517 6.28742 11.4937 6.39057 11.3906C6.49371 11.2874 6.55166 11.1475 6.55166 11.0017C6.55166 10.8558 6.49371 10.7159 6.39057 10.6128C6.28742 10.5096 6.14753 10.4517 6.00166 10.4517C5.85579 10.4517 5.7159 10.5096 5.61275 10.6128C5.50961 10.7159 5.45166 10.8558 5.45166 11.0017C5.45166 11.1475 5.50961 11.2874 5.61275 11.3906C5.7159 11.4937 5.85579 11.5517 6.00166 11.5517Z" fill="#A1A1A1" stroke="#A1A1A1" stroke-width="2" stroke-linecap="round" stroke-linejoin="round"/>
<path id="Vector_2" d="M11.5 21L11.4985 21C9.85596 21.0025 8.24015 20.5984 6.79448 19.826C6.39948 19.6149 5.92822 19.5244 5.45329 19.6128L5.63636 20.5959L5.45328 19.6128L2.29996 20.2L2.88715 17.0469C2.97563 16.5717 2.88496 16.1003 2.67372 15.7052L1.90035 16.1186L2.67372 15.7052C1.92499 14.3047 1.5 12.7027 1.5 11C1.5 5.47698 5.97698 1 11.5 1C17.023 1 21.5 5.47698 21.5 11C21.5 16.523 17.023 21 11.5 21Z" stroke="#A1A1A1" stroke-width="2" stroke-linecap="round" stroke-linejoin="round"/>
</g>
</svg>
